<?xml version="1.0" standalone="no"?>
<!DOCTYPE svg PUBLIC "-//W3C//DTD SVG 20010904//EN"
 "http://www.w3.org/TR/2001/REC-SVG-20010904/DTD/svg10.dtd">
<svg version="1.0" xmlns="http://www.w3.org/2000/svg"
 width="640.000000pt" height="640.000000pt" viewBox="0 0 640.000000 640.000000"
 preserveAspectRatio="xMidYMid meet">
<metadata>
Created by potrace 1.11, written by Peter Selinger 2001-2013
</metadata>
<g transform="translate(0.000000,640.000000) scale(0.100000,-0.100000)"
fill="#000000" stroke="none">
<path d="M3265 6389 c-91 -22 -208 -66 -349 -130 -139 -64 -186 -91 -186 -110
0 -4 -16 -43 -36 -86 -20 -43 -97 -213 -171 -378 -74 -165 -143 -318 -153
-340 -54 -119 -582 -1291 -635 -1410 -35 -77 -97 -216 -140 -310 -94 -208 -84
-185 -198 -440 -185 -411 -230 -511 -254 -565 -33 -72 -148 -328 -230 -510
-36 -80 -76 -170 -90 -200 -14 -30 -54 -120 -90 -199 l-64 -144 35 -36 c26
-27 37 -50 45 -91 17 -88 19 -97 32 -122 20 -39 51 -68 73 -68 12 0 35 9 51
19 l30 19 84 -87 c105 -108 497 -514 575 -595 32 -34 108 -112 168 -173 l110
-113 18 -84 c45 -204 119 -273 232 -215 49 25 144 113 183 169 22 31 34 39 73
46 26 4 49 8 52 9 11 2 86 17 200 40 41 8 85 16 96 19 12 2 37 7 55 10 19 3
90 16 159 30 69 14 136 27 150 30 27 4 224 43 415 81 66 14 156 31 200 39 44
9 91 18 105 21 14 3 39 8 55 11 17 2 73 13 125 24 52 10 248 48 435 85 187 36
410 80 495 97 85 16 166 32 180 35 13 2 56 11 95 19 38 8 88 18 110 21 22 3
42 7 44 9 2 2 21 -33 43 -78 21 -45 52 -98 68 -118 62 -79 131 -75 168 8 27
61 31 81 33 175 2 71 3 77 23 77 48 1 50 12 18 106 -32 94 -385 1167 -496
1509 l-65 200 -55 50 -54 50 -102 315 c-57 173 -124 382 -151 464 -27 82 -49
155 -49 162 0 11 298 484 305 484 1 0 26 -18 55 -40 47 -35 58 -39 89 -34 31
6 372 173 394 193 4 4 -62 63 -147 130 l-154 123 45 72 c24 39 65 104 91 143
52 81 279 433 302 470 13 21 13 24 -9 40 -76 56 -105 73 -113 65 -10 -10 -107
-159 -318 -487 -69 -107 -128 -194 -132 -195 -4 0 -13 6 -20 13 -7 7 -55 45
-106 86 -67 53 -101 73 -124 75 -30 1 -32 -2 -67 -89 -20 -49 -59 -143 -85
-208 -26 -66 -44 -122 -40 -127 5 -4 51 -35 102 -69 85 -57 91 -63 81 -83 -18
-33 -219 -338 -224 -338 -2 0 -24 62 -48 138 -144 441 -326 997 -367 1122 -26
80 -106 325 -178 545 l-131 400 -38 22 c-89 51 -323 164 -381 183 -74 24 -190
33 -247 19z"/>
</g>
</svg>
