<svg id="svg" version="1.1" xmlns="http://www.w3.org/2000/svg" xmlns:xlink="http://www.w3.org/1999/xlink" width="400" height="400" viewBox="0, 0, 400,400"><g id="svgg"><path id="path0" d="M334.695 83.654 C 332.179 84.385,330.324 85.999,325.857 91.348 C 322.852 94.946,320.388 95.424,316.172 93.229 C 313.090 91.625,299.100 90.845,295.884 92.098 C 292.651 93.358,291.824 96.363,293.292 101.522 C 294.241 104.858,294.295 105.917,293.541 106.396 C 291.767 107.523,284.663 107.046,280.004 105.488 C 277.467 104.639,274.775 103.936,274.023 103.925 C 273.271 103.915,272.656 103.611,272.656 103.250 C 272.656 102.889,271.162 102.098,269.336 101.492 C 262.383 99.185,230.469 100.542,230.469 103.145 C 230.469 103.448,228.096 103.908,225.195 104.166 C 222.295 104.425,215.879 105.160,210.938 105.800 C 197.704 107.514,141.971 107.474,133.203 105.744 C 129.766 105.066,125.459 104.339,123.633 104.130 C 121.807 103.920,120.313 103.456,120.313 103.099 C 120.313 101.909,111.296 100.286,89.610 97.570 C 86.259 97.151,82.568 96.404,81.407 95.911 C 75.197 93.274,49.347 92.885,47.637 95.402 C 47.412 95.734,45.479 96.447,43.341 96.986 C 41.202 97.526,38.926 98.357,38.281 98.833 C 37.637 99.308,36.216 100.076,35.124 100.539 C 34.032 101.002,32.274 102.649,31.218 104.200 C 30.161 105.752,28.917 107.023,28.452 107.026 C 27.599 107.031,27.304 107.536,24.206 114.285 C 23.263 116.341,22.075 118.450,21.567 118.972 C 18.643 121.979,15.144 136.572,14.408 148.828 C 14.098 153.984,13.519 158.414,13.121 158.672 C 12.709 158.938,12.113 174.779,11.739 195.391 C 11.041 233.873,10.455 239.411,6.035 249.279 C 1.251 259.960,1.347 289.795,6.183 295.623 C 9.234 299.299,12.500 296.054,12.500 289.346 C 12.500 287.301,12.978 285.348,13.641 284.685 C 14.269 284.057,14.992 282.236,15.247 280.639 C 15.503 279.041,16.747 274.987,18.012 271.630 C 19.277 268.272,20.312 264.844,20.312 264.013 C 20.312 263.181,20.620 262.500,20.996 262.500 C 21.372 262.500,21.891 261.445,22.148 260.156 C 23.718 252.308,24.720 259.141,25.758 284.766 C 26.692 307.799,27.997 323.725,28.982 324.089 C 29.370 324.232,29.688 327.143,29.688 330.558 C 29.688 335.357,29.954 336.870,30.859 337.217 C 31.504 337.465,32.044 338.069,32.060 338.560 C 32.241 344.242,54.388 346.975,59.097 341.897 C 62.212 338.537,61.020 334.524,53.610 323.438 C 47.927 314.935,45.809 301.053,47.612 284.129 C 51.200 250.448,55.451 259.150,55.556 300.391 C 55.626 327.891,55.809 328.906,60.708 328.906 C 61.720 328.906,62.750 329.430,62.995 330.070 C 64.295 333.456,78.727 333.434,82.390 330.039 C 85.283 327.358,85.076 323.458,81.795 318.855 C 78.539 314.288,77.611 312.098,76.908 307.328 C 76.599 305.231,75.989 303.286,75.554 303.005 C 74.043 302.032,73.783 275.000,75.284 275.000 C 75.987 275.000,76.567 275.264,76.571 275.586 C 76.576 275.908,78.071 276.819,79.892 277.609 C 87.382 280.861,87.087 280.608,88.982 285.394 C 90.448 289.098,96.903 288.255,98.032 284.212 C 99.272 279.772,100.078 279.416,102.902 282.055 C 106.863 285.757,112.500 283.318,112.500 277.903 C 112.500 276.335,124.690 264.063,126.248 264.063 C 128.253 264.062,132.538 261.304,135.145 258.335 C 138.592 254.409,139.846 253.832,143.045 254.701 C 162.346 259.942,188.311 259.055,201.477 252.703 C 203.668 251.646,205.591 250.781,205.750 250.781 C 205.909 250.781,206.663 254.658,207.425 259.396 C 208.188 264.134,209.114 268.198,209.484 268.427 C 209.854 268.655,210.152 269.964,210.146 271.335 C 210.136 273.905,211.428 280.610,214.166 292.199 C 215.539 298.011,215.678 300.477,215.266 311.730 C 214.301 338.072,214.161 337.340,220.745 340.354 C 228.100 343.721,240.563 343.529,244.727 339.984 C 246.676 338.325,246.661 329.097,244.705 326.473 C 243.941 325.448,242.837 323.203,242.251 321.484 C 241.665 319.766,240.819 318.123,240.371 317.833 C 239.027 316.967,239.190 293.860,240.546 293.019 C 241.850 292.211,241.944 281.820,240.651 281.389 C 239.613 281.043,239.588 272.656,240.625 272.656 C 241.055 272.656,241.436 272.041,241.472 271.289 C 241.508 270.537,242.008 271.855,242.584 274.219 C 243.159 276.582,244.255 280.449,245.019 282.813 C 246.560 287.577,246.689 292.068,245.752 308.203 C 244.928 322.381,245.555 325.003,250.320 327.310 C 252.201 328.220,253.913 329.627,254.124 330.437 C 254.645 332.429,259.047 333.661,267.429 334.160 C 281.237 334.983,284.681 330.238,277.763 319.922 C 275.845 317.062,273.841 313.519,273.309 312.049 C 272.777 310.578,272.096 309.375,271.794 309.375 C 268.684 309.375,268.745 283.185,271.860 281.260 C 272.303 280.986,272.882 275.506,273.169 268.870 C 273.743 255.603,273.498 256.086,279.797 255.840 C 286.100 255.594,288.322 254.471,291.827 249.763 C 293.490 247.530,296.536 243.878,298.597 241.648 C 300.658 239.418,302.344 237.196,302.344 236.710 C 302.344 236.224,302.871 235.299,303.514 234.655 C 304.158 234.011,304.883 232.542,305.125 231.391 C 305.366 230.239,306.070 228.142,306.688 226.731 C 307.307 225.320,307.813 223.457,307.813 222.590 C 307.813 219.827,314.173 208.709,317.947 204.874 C 319.951 202.838,322.577 199.851,323.783 198.236 C 324.989 196.621,327.251 193.904,328.808 192.198 C 334.123 186.379,336.090 183.833,337.330 181.174 C 338.011 179.712,338.675 178.374,338.805 178.201 C 339.043 177.883,355.571 177.389,364.667 177.427 C 372.035 177.458,378.123 175.889,378.936 173.751 C 379.302 172.788,380.236 171.646,381.011 171.212 C 382.173 170.563,382.465 169.205,382.664 163.532 L 382.906 156.641 379.734 153.610 C 377.990 151.943,376.563 150.158,376.563 149.644 C 376.563 149.130,375.678 147.879,374.596 146.863 C 371.472 143.927,370.603 139.866,372.229 135.801 C 373.185 133.411,373.501 130.836,373.313 126.957 L 373.047 121.484 378.456 120.950 C 382.160 120.584,384.499 119.904,385.878 118.795 C 386.985 117.903,388.606 116.863,389.481 116.482 C 392.037 115.371,396.094 106.137,396.094 101.430 C 396.094 96.112,393.668 94.531,385.507 94.531 C 381.876 94.531,378.906 94.822,378.906 95.177 C 378.906 95.914,370.197 97.656,366.511 97.656 C 365.165 97.656,364.063 97.362,364.063 97.002 C 364.063 96.643,362.373 94.615,360.309 92.495 C 358.245 90.376,356.339 88.078,356.075 87.390 C 354.654 83.687,342.124 81.498,334.695 83.654 " stroke="none" fill="#000000" fill-rule="evenodd"></path></g></svg>