<svg id="svg" version="1.1" xmlns="http://www.w3.org/2000/svg" xmlns:xlink="http://www.w3.org/1999/xlink" width="400" height="442.3326133909287" viewBox="0, 0, 400,442.3326133909287"><g id="svgg"><path id="path0" d="M4.950 1.509 C 2.850 3.829,3.091 7.978,5.616 12.959 C 8.510 18.670,8.463 23.241,5.474 26.793 C 3.269 29.413,3.159 30.022,2.864 41.330 C 2.695 47.821,2.152 56.163,1.657 59.868 C 0.209 70.713,2.195 88.663,5.213 92.009 C 6.761 93.725,9.503 102.741,9.503 106.116 C 9.503 107.086,9.935 108.973,10.462 110.311 C 12.047 114.330,12.821 110.678,12.967 98.488 C 13.195 79.463,13.940 73.788,16.554 71.174 C 19.222 68.506,20.734 69.050,20.734 72.678 C 20.734 75.572,22.079 78.618,23.357 78.618 C 23.815 78.618,24.191 77.549,24.193 76.242 C 24.197 73.029,32.821 57.543,34.815 57.169 C 36.998 56.758,38.877 58.575,38.877 61.096 C 38.877 62.271,39.430 64.264,40.105 65.525 C 40.780 66.787,41.565 68.549,41.849 69.442 C 42.373 71.095,44.146 71.104,51.051 69.489 C 53.587 68.896,60.272 76.463,64.627 84.858 C 65.857 87.230,67.370 89.364,67.989 89.602 C 69.343 90.121,69.484 92.974,68.196 93.770 C 67.691 94.082,66.595 93.719,65.760 92.964 C 64.113 91.474,59.611 94.880,59.611 97.616 C 59.611 98.272,58.821 99.650,57.855 100.679 C 56.293 102.341,56.245 102.671,57.423 103.648 C 58.151 104.252,58.747 105.283,58.747 105.937 C 58.747 107.712,48.512 107.613,47.829 105.832 C 47.183 104.149,44.924 104.149,44.924 105.832 C 44.924 106.544,45.298 107.127,45.755 107.127 C 49.507 107.127,50.968 112.982,47.304 113.336 C 45.061 113.553,44.413 114.061,44.064 115.873 C 43.518 118.714,37.666 125.261,35.639 125.297 C 30.810 125.384,29.309 128.893,29.533 139.568 C 29.649 145.078,30.047 149.774,30.418 150.003 C 33.181 151.711,32.850 153.895,29.313 157.293 C 25.922 160.551,25.793 160.849,27.131 162.328 C 28.402 163.732,28.413 164.016,27.236 164.993 C 25.422 166.498,25.586 168.228,27.646 169.330 C 29.841 170.505,29.841 172.095,27.646 174.082 C 26.695 174.942,25.918 176.557,25.918 177.672 C 25.918 179.992,24.887 180.283,23.326 178.402 C 21.947 176.739,20.815 176.754,20.167 178.443 C 19.870 179.217,20.331 180.276,21.262 180.957 C 22.792 182.076,22.798 182.215,21.371 183.791 C 19.527 185.829,19.403 191.193,21.166 192.657 C 22.976 194.158,22.781 195.827,20.734 196.363 C 19.784 196.611,19.006 197.240,19.006 197.759 C 19.006 198.943,22.172 199.008,22.894 197.840 C 24.523 195.204,25.918 197.159,25.918 202.079 C 25.918 207.145,25.886 207.209,21.598 210.799 C 17.078 214.584,16.495 216.170,18.602 218.956 C 19.300 219.878,19.870 221.893,19.870 223.433 C 19.870 225.475,20.339 226.382,21.598 226.782 C 23.988 227.540,23.988 233.444,21.598 236.481 C 20.005 238.507,19.870 239.986,19.870 255.468 L 19.870 272.258 21.814 271.982 C 23.619 271.726,23.762 271.262,23.807 265.479 C 23.843 260.892,24.241 258.827,25.319 257.636 C 27.204 255.553,27.163 254.650,25.128 253.378 C 23.640 252.449,23.296 250.063,24.067 246.004 C 24.294 244.807,30.277 245.342,32.428 246.752 C 34.792 248.301,35.216 250.341,33.324 251.067 C 31.536 251.753,32.366 254.536,35.383 257.972 C 38.469 261.487,39.350 272.545,36.717 274.730 C 34.593 276.493,35.158 280.203,37.961 282.888 C 41.346 286.131,43.626 285.419,42.641 281.426 C 41.438 276.552,41.731 270.842,43.185 270.842 C 43.891 270.842,44.598 271.620,44.755 272.570 C 44.913 273.521,45.558 275.464,46.188 276.890 C 46.985 278.692,47.251 282.507,47.060 289.409 C 46.891 295.541,47.137 299.759,47.703 300.441 C 49.081 302.101,46.336 304.647,41.403 306.285 C 39.103 307.049,35.750 308.672,33.953 309.892 C 31.073 311.846,29.475 312.178,20.465 312.691 C 9.243 313.329,8.698 313.610,8.621 318.790 C 8.419 332.450,6.874 349.758,5.651 352.053 C 4.124 354.920,4.071 362.702,5.569 364.184 C 7.270 365.868,14.897 369.762,16.493 369.762 C 18.530 369.762,19.547 367.808,20.316 362.419 C 21.481 354.258,27.693 348.164,34.847 348.164 C 36.103 348.164,39.741 357.463,39.741 360.676 C 39.741 361.281,40.263 362.209,40.901 362.738 C 43.079 364.546,44.089 360.064,43.602 350.751 C 43.021 339.647,45.835 332.755,50.996 332.642 C 53.716 332.583,55.991 329.990,56.995 325.806 C 57.558 323.457,58.948 320.683,60.108 319.594 C 61.496 318.289,62.203 316.673,62.203 314.803 C 62.203 313.251,62.593 311.740,63.069 311.446 C 64.672 310.455,65.659 315.392,65.659 324.411 C 65.659 333.684,66.549 336.110,68.814 333.012 C 69.551 332.004,69.978 328.989,69.978 324.802 C 69.978 318.070,71.105 313.005,72.950 311.447 C 73.513 310.972,74.228 309.903,74.540 309.071 C 75.688 306.013,76.890 307.655,76.890 312.281 C 76.890 317.149,78.084 318.790,81.626 318.790 C 83.311 318.790,87.192 323.011,87.230 324.885 C 87.245 325.623,88.618 327.546,90.281 329.158 C 93.967 332.731,94.542 338.583,91.577 342.352 C 89.458 345.046,89.373 347.194,91.331 348.625 C 93.356 350.106,93.047 362.649,90.948 364.184 C 89.552 365.205,90.076 367.171,91.745 367.171 C 93.214 367.171,96.760 362.926,96.760 361.168 C 96.760 360.291,98.127 358.375,99.797 356.908 L 102.833 354.242 102.910 344.508 C 102.952 339.154,102.849 334.190,102.681 333.477 C 102.178 331.340,104.511 332.016,105.665 334.341 C 106.591 336.206,107.462 336.560,112.045 336.933 C 114.964 337.171,117.482 337.561,117.640 337.801 C 117.797 338.041,119.031 339.460,120.380 340.953 C 122.740 343.565,122.779 343.751,121.413 345.836 C 120.346 347.465,120.035 349.746,120.161 355.009 C 120.299 360.696,120.038 362.336,118.779 363.728 C 117.294 365.368,117.293 365.516,118.755 367.131 C 120.049 368.561,120.261 370.340,120.144 378.776 C 120.002 389.031,120.816 392.553,123.123 391.668 C 124.212 391.250,124.406 387.810,124.406 368.969 L 124.406 346.761 126.963 344.871 C 130.421 342.314,131.241 342.459,134.581 346.213 C 136.679 348.571,137.296 349.915,136.863 351.181 C 135.660 354.689,135.462 362.030,136.534 363.323 C 138.520 365.715,139.957 363.128,139.957 357.161 L 139.957 351.683 143.871 351.761 C 146.366 351.812,148.348 351.331,149.338 350.434 C 151.624 348.365,153.515 348.718,154.172 351.336 C 154.490 352.605,155.483 354.574,156.378 355.712 C 157.648 357.327,157.900 358.667,157.527 361.827 C 157.127 365.213,157.346 366.144,158.870 367.521 C 161.377 369.786,161.171 370.890,157.667 373.966 C 154.381 376.852,153.930 378.462,155.940 380.130 C 156.782 380.829,157.237 382.756,157.240 385.635 C 157.244 389.466,157.630 390.469,160.101 393.058 L 162.958 396.050 162.611 407.744 C 162.228 420.664,163.166 424.204,166.289 421.613 C 167.635 420.496,167.706 418.037,167.163 391.267 C 166.575 362.280,166.581 362.132,168.383 361.168 C 169.911 360.350,170.194 359.393,170.194 355.045 C 170.194 351.041,170.483 349.892,171.490 349.892 C 172.203 349.892,172.786 350.597,172.786 351.458 C 172.786 353.140,176.313 356.826,179.482 358.456 C 181.327 359.406,181.425 359.959,181.425 369.421 C 181.425 379.261,181.450 379.382,183.369 379.110 C 184.978 378.881,185.358 378.213,185.576 375.229 C 185.720 373.247,186.400 371.158,187.087 370.588 C 188.709 369.242,188.686 367.250,187.041 366.619 C 185.368 365.977,185.368 362.512,187.041 361.123 C 187.924 360.390,188.337 358.429,188.337 354.970 C 188.337 349.620,188.852 349.083,192.039 351.108 C 194.103 352.420,203.024 352.045,203.024 350.646 C 203.024 350.231,203.757 349.892,204.652 349.892 C 206.284 349.892,209.071 353.236,209.071 355.193 C 209.071 355.766,209.681 356.909,210.426 357.733 C 211.529 358.952,211.585 359.544,210.726 360.919 C 209.526 362.841,211.672 366.692,214.472 367.639 C 218.711 369.075,219.395 378.402,215.261 378.402 C 214.423 378.402,213.300 378.838,212.767 379.371 C 211.205 380.933,212.509 382.721,215.211 382.721 L 217.711 382.721 217.711 397.724 C 217.711 411.418,217.861 412.917,219.438 414.923 C 220.987 416.891,221.166 418.427,221.166 429.726 C 221.166 441.757,221.245 442.333,222.894 442.333 C 224.527 442.333,224.627 441.727,224.710 431.317 C 224.974 398.106,224.740 385.784,223.839 385.484 C 222.573 385.062,222.630 382.090,223.912 381.662 C 224.548 381.450,224.989 378.983,225.087 375.097 C 225.197 370.710,225.661 368.409,226.660 367.305 C 228.445 365.333,228.509 359.576,226.769 357.653 C 222.629 353.078,225.943 343.623,231.016 345.533 C 232.966 346.267,236.183 345.408,237.112 343.905 C 238.243 342.075,241.903 342.875,242.765 345.140 C 244.608 349.989,249.676 347.116,249.676 341.222 C 249.676 336.380,252.133 335.207,255.077 338.644 C 256.189 339.943,257.180 340.227,259.194 339.824 C 261.247 339.414,262.328 339.747,263.980 341.299 C 267.088 344.219,267.721 342.851,268.002 332.603 L 268.251 323.542 270.842 323.713 C 282.440 324.477,281.247 323.336,282.116 334.498 C 282.607 340.804,283.021 342.300,284.719 343.895 C 287.147 346.176,289.417 345.583,289.417 342.668 C 289.417 341.516,290.000 340.350,290.713 340.076 C 292.574 339.362,292.309 337.021,290.172 335.291 C 288.539 333.968,288.466 333.593,289.516 331.912 C 291.026 329.494,291.509 329.534,292.715 332.181 C 293.420 333.727,294.380 334.342,296.094 334.344 C 301.872 334.352,306.475 339.380,307.260 346.543 C 308.092 354.134,310.946 359.639,313.262 358.122 C 316.931 355.718,323.222 359.225,325.728 365.071 C 327.651 369.557,330.172 371.361,334.774 371.545 C 348.524 372.096,352.591 374.785,355.968 385.559 C 358.726 394.359,367.572 403.453,373.380 403.461 C 378.969 403.468,383.086 404.903,387.073 408.234 C 391.008 411.522,391.588 411.664,395.489 410.305 C 399.651 408.853,401.448 401.261,398.826 396.206 C 397.922 394.464,397.861 393.156,398.561 390.532 C 399.273 387.864,399.202 386.619,398.234 384.809 C 396.930 382.374,396.503 382.148,388.493 379.649 C 383.997 378.246,382.354 376.973,372.942 367.593 C 362.887 357.571,355.593 352.221,347.459 348.902 C 345.496 348.101,343.319 345.834,340.547 341.707 C 337.020 336.454,335.947 335.487,332.181 334.159 C 329.570 333.238,326.547 331.256,324.536 329.146 C 322.706 327.227,320.133 325.100,318.817 324.420 C 316.987 323.473,316.516 322.705,316.813 321.150 C 317.289 318.658,315.160 316.681,312.694 317.326 C 310.670 317.855,308.028 314.307,307.057 309.754 C 306.251 305.978,299.385 295.954,296.797 294.775 C 294.082 293.537,293.987 292.375,296.544 291.689 C 302.501 290.093,306.688 293.537,306.156 299.595 C 305.798 303.660,307.349 305.207,309.768 303.199 C 310.877 302.279,310.995 300.595,310.501 292.782 L 309.911 283.461 314.809 278.985 C 319.527 274.673,319.659 274.434,318.398 272.508 C 317.239 270.740,317.236 270.361,318.371 269.225 C 319.077 268.520,319.654 267.573,319.654 267.122 C 319.654 266.671,320.227 265.827,320.927 265.246 C 321.628 264.665,322.455 262.835,322.765 261.180 C 323.123 259.270,324.838 256.572,327.457 253.798 C 332.364 248.598,333.431 245.042,330.894 242.342 C 328.624 239.925,328.704 239.309,331.287 239.309 C 333.945 239.309,335.205 237.072,335.205 232.353 C 335.205 229.166,335.002 228.793,333.477 229.192 C 331.473 229.716,331.111 228.269,333.059 227.521 C 333.904 227.197,334.360 225.903,334.346 223.876 C 334.325 221.011,334.902 207.803,335.115 206.263 C 335.165 205.907,336.130 205.616,337.259 205.616 C 340.115 205.616,341.158 204.014,341.099 199.723 C 341.068 197.483,341.595 195.438,342.446 194.498 C 345.970 190.603,343.420 188.315,339.479 191.834 C 337.889 193.253,336.205 194.286,335.735 194.129 C 333.717 193.457,334.497 191.670,338.333 188.179 C 346.542 180.706,347.300 179.818,347.300 177.675 C 347.300 173.913,346.457 172.748,344.152 173.327 C 340.776 174.174,335.957 168.204,334.653 161.558 C 334.421 160.372,333.672 159.089,332.990 158.708 C 332.308 158.326,331.739 157.158,331.725 156.113 C 331.712 155.067,330.554 153.086,329.152 151.710 C 327.750 150.334,326.354 148.391,326.050 147.391 C 325.746 146.391,324.900 144.892,324.170 144.060 C 322.969 142.693,322.998 142.376,324.477 140.743 C 326.021 139.036,326.028 138.876,324.611 137.840 C 323.785 137.236,323.110 135.933,323.110 134.943 C 323.110 133.953,322.367 132.623,321.458 131.986 C 320.549 131.349,319.674 129.675,319.514 128.265 C 319.042 124.114,316.710 124.998,316.199 129.523 C 315.319 137.307,313.607 134.607,313.607 125.434 C 313.607 118.570,313.343 116.714,312.311 116.318 C 311.451 115.988,311.015 114.631,311.015 112.281 C 311.015 110.335,310.582 107.933,310.053 106.944 C 309.137 105.232,309.258 105.168,312.592 105.615 C 316.525 106.143,318.790 104.532,318.790 101.209 C 318.790 96.973,324.989 92.097,333.649 89.520 C 338.069 88.205,343.434 86.157,345.572 84.970 C 347.711 83.782,351.338 82.587,353.634 82.313 C 356.809 81.935,357.976 81.382,358.509 80.001 C 358.894 79.003,360.737 77.046,362.603 75.653 C 367.489 72.006,370.102 67.888,372.449 60.135 C 374.242 54.215,374.970 52.985,377.970 50.807 C 384.665 45.947,385.784 38.979,379.914 38.706 C 369.011 38.201,365.947 39.456,366.867 44.054 C 367.584 47.638,364.618 49.920,358.316 50.633 C 353.541 51.173,353.011 51.461,350.704 54.765 C 344.543 63.586,342.565 65.731,338.379 68.132 C 335.920 69.541,331.771 72.664,329.158 75.072 C 326.544 77.479,322.657 80.116,320.518 80.931 C 318.380 81.747,316.335 82.893,315.973 83.479 C 313.021 88.267,297.391 95.789,295.464 93.349 C 294.752 92.447,293.197 91.582,292.009 91.427 C 290.425 91.220,289.628 90.396,289.022 88.337 C 288.263 85.757,287.906 85.529,284.637 85.529 C 282.035 85.529,280.574 84.992,279.200 83.530 C 276.873 81.053,276.795 79.482,278.999 79.482 C 281.597 79.482,281.989 77.843,279.608 76.938 C 278.432 76.491,277.205 75.292,276.882 74.274 C 276.423 72.827,275.838 72.538,274.198 72.950 C 271.820 73.547,270.960 72.198,270.960 67.867 C 270.960 64.773,273.380 63.707,274.105 66.481 C 274.360 67.454,274.993 68.251,275.513 68.251 C 276.935 68.251,276.648 65.677,275.162 65.107 C 274.449 64.834,273.866 63.563,273.866 62.283 C 273.866 58.073,273.044 57.883,254.779 57.883 C 240.453 57.883,237.687 57.679,237.269 56.587 C 236.631 54.925,234.641 54.925,233.261 56.587 C 231.860 58.276,226.023 58.276,224.622 56.587 C 224.031 55.875,222.881 55.292,222.068 55.292 C 219.791 55.292,219.378 54.373,220.765 52.394 C 222.754 49.555,222.455 49.421,214.903 49.774 C 205.040 50.235,205.523 50.241,202.160 49.620 C 200.497 49.312,198.747 48.583,198.272 47.998 C 197.195 46.672,193.974 44.924,192.608 44.924 C 191.821 44.924,191.818 45.210,192.594 46.145 C 193.401 47.117,193.117 47.821,191.197 49.601 C 188.118 52.456,185.745 52.543,185.745 49.802 C 185.745 48.684,184.792 46.740,183.627 45.483 L 181.508 43.197 165.789 43.197 L 150.070 43.197 146.381 46.219 L 142.692 49.242 134.238 48.991 C 125.448 48.729,119.095 51.462,120.427 54.932 C 120.662 55.544,120.098 57.006,119.174 58.180 C 118.250 59.355,117.495 61.129,117.495 62.123 C 117.495 64.001,117.142 64.143,112.595 64.101 C 110.967 64.086,109.248 64.747,108.358 65.731 C 107.534 66.642,106.270 67.387,105.550 67.387 C 104.829 67.387,103.494 68.062,102.582 68.887 C 101.008 70.312,100.868 70.312,99.827 68.887 C 97.457 65.646,93.527 67.107,92.788 71.505 C 91.953 76.469,90.313 77.711,89.384 74.082 C 89.095 72.950,86.894 70.901,84.115 69.177 C 81.474 67.538,77.735 64.108,75.741 61.495 C 73.759 58.898,69.287 53.461,65.802 49.411 C 58.325 40.724,57.067 38.907,56.548 36.042 C 56.007 33.062,49.510 23.540,46.810 21.771 C 43.186 19.397,38.191 13.786,36.335 10.004 C 32.850 2.906,31.895 2.318,22.614 1.549 C 18.016 1.168,12.497 0.632,10.350 0.357 C 7.191 -0.047,6.159 0.173,4.950 1.509 M179.977 47.522 C 180.987 47.518,181.452 48.035,181.273 48.964 C 181.004 50.358,152.311 50.904,150.131 49.557 C 146.980 47.609,150.257 47.072,163.931 47.294 C 171.890 47.423,179.111 47.526,179.977 47.522 M145.614 54.453 C 147.129 55.389,149.404 56.156,150.671 56.156 C 152.025 56.156,153.963 57.134,155.375 58.531 C 156.695 59.838,158.798 61.760,160.049 62.803 C 161.343 63.883,162.571 66.024,162.899 67.771 C 163.594 71.473,166.389 72.102,167.232 68.746 C 169.020 61.623,171.771 63.367,171.985 71.758 C 172.166 78.826,172.856 80.346,175.885 80.346 C 179.093 80.346,179.892 77.651,179.563 67.940 C 179.252 58.767,181.120 55.636,184.304 59.991 C 184.860 60.751,186.481 61.683,187.906 62.061 C 190.107 62.646,190.537 63.222,190.763 65.892 C 190.975 68.403,191.627 69.405,194.002 70.873 C 196.804 72.605,196.976 72.984,196.976 77.428 C 196.976 80.745,197.430 82.632,198.503 83.785 C 199.959 85.347,200.174 90.356,199.588 109.071 C 199.577 109.428,198.790 109.719,197.840 109.719 C 196.890 109.719,195.335 110.497,194.384 111.447 C 192.849 112.982,191.505 113.175,182.321 113.175 C 174.149 113.175,171.101 113.524,167.757 114.842 C 164.255 116.222,162.916 116.354,159.972 115.607 C 157.990 115.104,155.355 115.005,154.018 115.385 C 151.642 116.059,145.181 116.000,140.606 115.262 C 137.412 114.746,132.482 116.913,131.774 119.144 C 130.962 121.705,130.122 121.396,128.468 117.927 C 127.675 116.263,126.712 114.903,126.328 114.903 C 122.887 114.903,114.532 103.033,115.738 99.858 C 116.922 96.746,116.927 96.760,114.670 96.760 C 112.746 96.760,112.705 96.551,112.447 85.529 L 112.185 74.298 114.302 74.298 C 115.466 74.298,116.903 74.881,117.495 75.594 C 119.096 77.523,122.122 77.295,121.596 75.285 C 120.272 70.223,124.208 69.711,128.601 74.375 C 130.997 76.918,132.488 77.825,133.931 77.614 C 136.464 77.244,136.978 75.763,135.193 73.977 C 132.641 71.426,133.220 64.795,135.994 64.795 C 138.403 64.795,139.263 67.322,139.145 74.057 C 138.773 95.365,138.669 94.137,141.054 96.522 C 145.545 101.014,146.085 99.430,145.966 82.123 C 145.850 65.345,145.947 64.795,149.028 64.795 C 152.410 64.795,152.551 63.001,149.376 60.368 C 146.507 57.989,146.180 57.929,135.826 57.907 C 124.863 57.883,122.681 57.115,125.142 54.150 C 126.794 52.160,142.273 52.389,145.614 54.453 M212.908 60.935 C 213.830 61.632,215.215 62.203,215.984 62.203 C 216.754 62.203,219.197 64.178,221.413 66.592 C 223.629 69.005,226.522 71.270,227.840 71.624 L 230.238 72.267 230.342 83.279 C 230.402 89.574,230.830 94.675,231.341 95.186 C 232.623 96.468,240.173 89.350,240.173 86.859 C 240.173 84.153,241.088 83.580,242.856 85.180 C 245.073 87.186,246.220 85.963,246.220 81.590 C 246.220 76.818,247.389 76.747,251.291 81.286 C 253.683 84.068,254.012 84.900,253.138 85.953 C 252.553 86.658,252.326 87.890,252.633 88.691 C 253.127 89.977,253.350 89.922,254.541 88.221 C 257.358 84.200,260.434 86.035,260.738 91.919 C 260.883 94.720,260.591 97.422,260.090 97.923 C 259.452 98.561,259.179 98.300,259.179 97.050 C 259.179 94.866,256.044 90.713,254.395 90.713 C 252.090 90.713,251.292 93.799,253.160 95.490 C 254.551 96.749,254.860 98.159,254.860 103.268 C 254.860 107.768,255.222 109.808,256.159 110.586 C 256.874 111.179,257.770 112.867,258.151 114.336 C 258.616 116.132,259.514 117.166,260.891 117.491 C 263.769 118.170,264.047 119.916,261.384 120.584 C 260.153 120.893,257.307 123.337,255.059 126.016 C 252.811 128.694,250.666 131.020,250.292 131.184 C 249.918 131.348,248.455 132.457,247.040 133.647 C 245.459 134.977,243.916 135.601,243.039 135.264 C 241.370 134.624,242.377 133.361,244.924 132.901 C 246.535 132.611,247.214 110.348,245.688 107.839 C 244.872 106.496,219.933 107.335,218.085 108.767 C 216.695 109.845,214.973 110.056,210.310 109.719 L 204.320 109.287 204.062 103.354 C 203.856 98.625,204.117 97.075,205.344 95.719 C 206.334 94.625,206.935 92.463,207.029 89.659 C 207.109 87.262,207.648 84.415,208.227 83.333 C 209.083 81.734,209.037 81.021,207.982 79.515 C 206.333 77.160,206.938 66.806,208.853 64.611 C 209.564 63.797,209.930 62.572,209.668 61.888 C 208.750 59.498,210.376 59.019,212.908 60.935 M202.872 65.084 C 203.333 69.111,202.459 70.517,200.562 68.800 C 199.703 68.023,198.373 67.387,197.607 67.387 C 195.510 67.387,195.166 66.161,196.664 64.022 C 198.667 61.163,202.498 61.818,202.872 65.084 M269.922 62.976 C 270.622 64.109,268.960 64.416,262.282 64.388 C 258.298 64.371,256.191 64.004,255.946 63.283 C 255.510 61.998,269.133 61.699,269.922 62.976 M267.183 69.631 C 268.024 70.472,266.869 72.570,265.566 72.570 C 264.904 72.570,264.363 71.793,264.363 70.842 C 264.363 69.216,266.045 68.493,267.183 69.631 M167.079 75.311 C 164.891 78.851,166.063 95.032,168.508 95.032 C 170.033 95.032,170.157 94.331,170.123 85.889 C 170.078 74.956,169.195 71.887,167.079 75.311 M106.535 79.960 C 108.166 82.201,108.438 92.927,106.888 93.885 C 105.643 94.654,98.904 86.229,99.215 84.292 C 99.486 82.604,103.434 77.722,104.481 77.781 C 104.749 77.796,105.673 78.777,106.535 79.960 M266.955 101.913 C 266.955 109.728,267.119 110.610,268.738 111.477 C 270.536 112.439,269.739 114.903,267.630 114.903 C 262.971 114.903,259.828 107.513,263.230 104.556 C 264.936 103.072,265.162 102.276,264.699 99.382 C 264.109 95.688,264.644 93.305,266.064 93.305 C 266.616 93.305,266.955 96.575,266.955 101.913 M276.306 98.771 C 276.512 100.573,277.249 101.446,279.114 102.096 C 282.485 103.271,282.340 103.634,277.176 106.929 C 272.216 110.094,272.230 110.096,271.355 106.116 C 270.080 100.311,271.161 95.765,273.745 96.064 C 275.528 96.271,276.087 96.862,276.306 98.771 M80.499 101.728 C 81.745 103.035,83.970 105.008,85.443 106.113 C 87.165 107.405,88.121 108.880,88.121 110.244 C 88.121 112.487,90.486 114.076,91.465 112.491 C 94.077 108.265,103.322 110.903,105.707 116.554 C 106.427 118.259,107.477 121.210,108.040 123.110 C 109.476 127.957,109.843 128.181,116.624 128.343 C 122.149 128.475,122.843 128.699,124.620 130.933 C 128.560 135.884,130.463 140.043,129.998 142.685 C 129.684 144.462,130.081 145.925,131.296 147.469 C 132.258 148.692,133.045 150.954,133.045 152.495 C 133.045 154.035,133.629 155.780,134.341 156.371 C 136.140 157.864,136.104 166.519,134.291 168.522 C 133.132 169.803,132.933 174.094,132.856 199.475 L 132.767 228.942 129.188 228.942 C 126.232 228.942,125.099 228.415,122.678 225.918 C 118.981 222.104,105.437 221.239,102.376 224.622 C 101.516 225.572,100.248 226.350,99.558 226.350 C 98.869 226.350,96.709 227.613,94.759 229.158 C 92.808 230.702,90.725 231.854,90.129 231.719 C 89.533 231.583,88.066 233.024,86.868 234.921 C 85.670 236.818,83.907 238.790,82.950 239.302 C 79.312 241.249,81.334 257.882,85.523 260.471 C 89.631 263.010,89.158 268.128,84.725 269.101 C 83.310 269.412,81.904 270.526,81.327 271.794 C 80.784 272.984,79.272 274.330,77.967 274.785 C 76.661 275.241,75.009 276.629,74.297 277.872 C 73.433 279.380,71.280 280.769,67.822 282.051 L 62.641 283.970 60.262 282.211 C 58.954 281.244,57.883 279.744,57.883 278.879 C 57.883 278.013,57.106 276.639,56.156 275.825 C 53.867 273.866,53.964 270.936,56.371 269.302 C 59.270 267.335,57.166 265.258,53.994 266.956 C 51.931 268.060,51.587 267.927,48.361 264.776 C 43.226 259.762,43.920 257.451,50.560 257.451 C 57.668 257.451,54.597 253.308,47.227 252.955 L 41.901 252.700 41.711 248.570 C 41.567 245.440,41.932 244.029,43.223 242.739 C 45.586 240.376,45.657 231.402,43.332 229.077 C 41.379 227.124,41.679 213.937,43.730 211.595 C 45.683 209.365,45.316 200.190,43.197 198.272 C 42.246 197.412,41.469 196.017,41.469 195.171 C 41.469 194.325,39.330 191.495,36.717 188.882 C 30.919 183.083,30.919 183.555,36.708 178.205 L 41.451 173.821 41.676 166.525 C 41.830 161.512,41.518 158.514,40.679 156.945 C 39.601 154.928,39.627 154.474,40.902 153.065 C 41.891 151.972,42.184 150.661,41.833 148.904 C 41.258 146.033,43.125 143.733,45.340 144.583 C 46.405 144.991,46.460 145.480,45.646 147.268 C 44.831 149.057,44.910 149.740,46.083 151.036 C 47.855 152.994,47.891 154.121,46.229 155.501 C 45.520 156.088,44.919 157.788,44.893 159.278 C 44.867 160.768,44.645 165.876,44.400 170.630 L 43.955 179.273 46.459 181.672 C 50.347 185.397,54.339 182.077,50.540 178.278 C 49.070 176.809,48.807 174.514,50.108 174.514 C 51.420 174.514,51.140 172.273,49.676 171.058 C 47.851 169.544,48.066 165.643,50.118 163.035 C 51.113 161.769,51.770 159.782,51.655 158.383 C 51.545 157.039,51.747 153.568,52.105 150.670 C 52.486 147.591,52.404 144.474,51.908 143.171 C 51.229 141.384,51.411 140.496,52.822 138.702 C 54.202 136.947,54.520 135.484,54.290 131.946 C 53.991 127.360,56.134 125.049,56.875 129.158 C 57.383 131.969,58.723 132.804,59.984 131.096 C 61.232 129.407,60.470 122.879,58.913 121.916 C 57.401 120.982,56.734 116.720,57.883 115.335 C 59.184 113.768,61.068 114.676,62.508 117.564 C 64.348 121.254,66.061 120.164,66.352 115.119 C 67.014 103.611,71.165 112.484,71.706 126.566 C 72.111 137.077,72.249 137.797,73.866 137.797 C 75.307 137.797,75.615 137.179,75.719 134.078 C 75.788 132.032,76.461 129.677,77.214 128.845 C 78.421 127.511,78.434 127.120,77.324 125.535 C 75.458 122.871,75.360 114.912,77.181 113.893 C 79.118 112.809,79.232 104.717,77.322 103.984 C 75.420 103.254,75.743 99.352,77.705 99.352 C 77.996 99.352,79.253 100.421,80.499 101.728 M74.730 107.415 C 74.730 109.667,73.036 109.526,72.713 107.247 C 72.516 105.849,72.787 105.328,73.577 105.591 C 74.211 105.803,74.730 106.623,74.730 107.415 M298.560 114.483 C 296.383 117.805,296.663 138.786,298.917 141.253 C 299.786 142.203,300.628 143.952,300.788 145.140 C 300.989 146.627,301.618 147.300,302.808 147.300 C 304.980 147.300,304.992 139.116,302.828 133.708 C 301.065 129.301,301.937 128.071,304.589 131.223 C 306.887 133.954,307.711 144.644,305.772 146.582 C 304.511 147.843,307.017 153.780,308.811 153.780 C 310.218 153.780,310.246 153.726,310.582 150.393 C 310.698 149.244,311.426 147.840,312.200 147.274 C 312.974 146.709,313.607 145.220,313.607 143.965 C 313.607 140.890,315.000 141.092,317.051 144.465 C 318.604 147.018,318.632 147.413,317.403 149.290 C 316.191 151.140,316.193 151.477,317.427 152.841 C 319.286 154.895,319.142 155.508,316.803 155.508 C 314.262 155.508,312.743 157.038,312.743 159.598 C 312.743 160.708,312.123 162.561,311.366 163.717 C 309.134 167.124,309.195 177.538,311.447 177.538 C 312.899 177.538,313.217 176.873,313.441 173.379 C 313.616 170.628,314.055 169.337,314.736 169.567 C 316.340 170.107,315.724 191.376,314.035 193.788 C 312.390 196.137,312.391 198.200,314.039 199.568 C 314.890 200.274,315.335 202.202,315.335 205.184 C 315.335 208.165,314.890 210.093,314.039 210.799 C 312.246 212.287,312.419 214.021,314.471 215.119 C 316.755 216.341,316.666 218.917,314.285 220.498 C 312.802 221.483,312.420 222.481,312.586 224.939 C 312.746 227.324,312.417 228.247,311.259 228.660 C 307.828 229.885,307.607 230.664,309.782 233.868 C 310.935 235.567,311.879 237.293,311.879 237.702 C 311.879 238.110,312.474 238.445,313.202 238.445 C 315.157 238.445,315.871 241.100,314.172 242.051 C 313.386 242.490,312.743 243.635,312.743 244.593 C 312.743 245.552,311.382 247.620,309.719 249.188 C 306.513 252.212,305.663 256.006,307.991 256.900 C 309.456 257.462,309.774 260.043,308.379 260.043 C 307.880 260.043,306.942 261.307,306.296 262.851 C 305.649 264.395,304.816 265.960,304.446 266.329 C 304.075 266.698,303.641 267.850,303.483 268.889 C 303.073 271.571,299.969 274.590,297.302 274.899 C 294.962 275.170,293.149 281.641,295.412 281.641 C 296.778 281.641,296.520 283.454,294.898 285.245 C 292.773 287.594,290.863 287.187,287.093 283.585 C 282.663 279.352,278.497 276.278,275.431 274.979 C 274.071 274.403,272.289 272.731,271.469 271.263 C 270.649 269.795,267.754 267.232,265.036 265.567 C 259.636 262.260,257.386 259.606,255.776 254.644 C 255.198 252.862,254.414 251.404,254.033 251.404 C 253.653 251.404,252.895 250.327,252.350 249.010 C 251.804 247.693,249.981 245.517,248.297 244.174 C 246.158 242.467,245.409 241.301,245.810 240.304 C 247.164 236.935,246.189 194.918,244.719 193.293 C 243.635 192.096,243.337 190.070,243.415 184.424 C 243.520 176.749,242.996 175.847,240.004 178.554 C 238.778 179.664,238.167 179.765,237.388 178.986 C 233.572 175.170,233.349 176.461,233.082 203.846 C 232.796 233.117,232.763 233.250,227.310 227.076 C 222.942 222.132,221.157 217.690,220.595 210.367 C 219.944 201.881,219.697 201.329,215.736 199.531 C 213.734 198.622,210.989 197.870,209.637 197.859 C 199.888 197.784,198.239 184.101,207.933 183.716 C 211.489 183.575,211.637 183.203,210.728 176.674 C 210.397 174.297,210.761 173.867,215.119 171.490 C 217.732 170.065,221.104 167.635,222.612 166.091 C 224.119 164.546,225.966 163.234,226.715 163.175 C 229.207 162.977,229.657 162.856,230.310 162.203 C 231.599 160.913,232.397 161.605,232.397 164.013 C 232.397 165.365,233.153 167.155,234.077 167.990 C 235.405 169.192,235.557 169.829,234.804 171.034 C 233.253 173.518,234.575 175.378,237.893 175.378 C 241.109 175.378,242.088 174.122,241.280 171.032 C 240.946 169.755,241.256 168.845,242.203 168.314 C 243.736 167.457,244.172 165.011,242.792 165.011 C 241.146 165.011,242.948 162.515,244.781 162.254 C 246.296 162.038,246.742 161.248,247.124 158.099 C 247.780 152.693,248.913 151.014,254.495 147.183 C 262.117 141.951,262.872 141.616,265.850 142.134 C 268.350 142.568,268.689 142.373,269.192 140.207 C 270.818 133.197,279.139 125.349,282.646 127.517 C 283.188 127.852,284.122 127.456,284.721 126.636 C 285.596 125.439,286.374 125.295,288.693 125.905 C 295.011 127.566,296.607 125.247,292.347 120.597 C 288.927 116.864,289.105 116.150,293.773 114.893 C 295.654 114.387,297.192 113.598,297.192 113.142 C 297.192 112.685,297.820 112.311,298.587 112.311 C 299.864 112.311,299.862 112.495,298.560 114.483 M303.704 126.822 C 302.944 127.582,301.502 125.122,302.120 124.120 C 302.392 123.680,302.986 123.982,303.438 124.792 C 303.891 125.601,304.011 126.515,303.704 126.822 M66.119 126.088 C 65.359 127.317,66.328 128.726,67.933 128.726 C 68.690 128.726,69.123 128.119,68.962 127.285 C 68.625 125.550,66.900 124.824,66.119 126.088 M93.477 126.307 C 92.028 127.756,92.186 130.031,93.830 131.395 C 95.448 132.738,98.031 130.169,97.211 128.032 C 96.963 127.385,96.760 126.500,96.760 126.063 C 96.760 124.930,94.701 125.083,93.477 126.307 M144.925 131.965 C 145.454 133.554,142.825 133.284,142.212 131.687 C 141.849 130.739,142.126 130.412,143.128 130.607 C 143.918 130.760,144.727 131.371,144.925 131.965 M63.162 132.499 C 62.415 133.399,62.502 133.946,63.525 134.795 C 65.176 136.165,67.019 134.720,66.233 132.671 C 65.593 131.004,64.456 130.940,63.162 132.499 M282.569 135.129 C 281.446 136.481,280.982 156.333,282.032 158.033 C 282.375 158.586,282.008 160.026,281.218 161.231 C 279.301 164.158,280.121 166.065,283.148 165.717 L 285.529 165.443 286.145 151.288 C 286.840 135.341,285.903 131.111,282.569 135.129 M150.694 136.995 C 152.957 139.258,152.467 140.973,149.892 139.800 C 148.704 139.258,147.732 138.100,147.732 137.226 C 147.732 135.279,148.888 135.188,150.694 136.995 M87.909 139.592 C 87.060 140.442,90.757 146.868,92.096 146.868 C 93.922 146.868,93.544 144.465,91.549 143.398 C 90.584 142.881,89.903 141.839,90.037 141.081 C 90.289 139.656,88.852 138.650,87.909 139.592 M34.989 145.644 C 34.989 147.988,34.613 149.028,33.765 149.028 C 31.961 149.028,30.673 144.538,32.013 142.923 C 33.736 140.847,34.989 141.993,34.989 145.644 M156.216 144.128 C 156.367 145.160,156.090 146.004,155.598 146.004 C 154.452 146.004,152.797 142.955,153.540 142.212 C 154.543 141.209,155.932 142.204,156.216 144.128 M209.402 142.971 C 210.815 144.041,211.364 144.029,213.584 142.881 C 215.880 141.694,216.289 141.694,217.608 142.888 C 218.910 144.066,219.353 144.072,221.533 142.941 C 223.320 142.015,224.298 141.921,225.115 142.599 C 225.890 143.242,226.750 143.259,227.883 142.653 C 229.588 141.740,233.261 142.256,233.261 143.408 C 233.261 144.499,231.292 145.718,227.646 146.884 C 216.794 150.355,208.136 155.737,205.932 160.380 C 203.608 165.277,193.678 166.990,188.991 163.303 C 186.823 161.598,186.813 161.598,181.538 163.519 C 175.165 165.840,174.098 165.387,171.753 159.366 C 169.663 153.997,169.085 153.459,163.461 151.640 C 156.284 149.318,158.654 147.732,169.302 147.732 C 176.647 147.732,177.901 147.512,179.290 145.978 C 180.738 144.377,181.842 144.233,191.904 144.332 C 200.725 144.418,203.324 144.164,204.897 143.062 C 207.255 141.410,207.338 141.409,209.402 142.971 M147.061 152.501 C 156.300 156.913,160.331 166.395,155.864 173.212 C 154.589 175.158,154.509 175.967,155.360 178.320 C 155.916 179.858,156.371 183.190,156.371 185.725 C 156.371 189.310,156.851 190.963,158.531 193.165 C 161.347 196.857,161.541 203.438,158.932 206.755 C 156.634 209.677,149.815 214.255,147.761 214.255 C 146.874 214.255,145.973 214.741,145.758 215.335 C 145.499 216.051,144.456 215.559,142.662 213.877 C 139.712 211.110,139.234 209.294,141.253 208.520 C 142.824 207.917,143.243 153.447,141.685 152.484 C 137.604 149.962,141.771 149.975,147.061 152.501 M68.918 153.089 C 68.241 154.929,69.144 156.371,70.974 156.371 C 72.258 156.371,72.621 155.884,72.414 154.436 C 72.109 152.297,69.571 151.319,68.918 153.089 M267.531 153.492 C 266.070 154.953,266.937 161.555,268.590 161.555 C 270.765 161.555,271.431 158.800,270.523 153.564 C 270.383 152.761,268.311 152.711,267.531 153.492 M279.655 169.877 C 278.095 171.437,279.050 174.634,280.994 174.358 C 282.414 174.156,282.937 173.504,282.937 171.934 C 282.937 169.849,280.937 168.595,279.655 169.877 M191.332 171.890 C 194.462 175.349,189.435 179.454,185.349 176.776 C 182.645 175.005,182.556 173.303,185.073 171.539 C 187.640 169.742,189.481 169.845,191.332 171.890 M322.246 180.888 C 322.246 182.017,322.829 183.426,323.542 184.017 C 325.637 185.756,325.445 225.482,323.326 228.724 C 320.574 232.937,317.868 235.429,317.208 234.360 C 315.898 232.242,316.717 220.133,318.226 219.288 C 319.488 218.582,319.654 216.243,319.654 199.237 C 319.654 188.649,319.914 179.726,320.230 179.410 C 321.387 178.253,322.246 178.883,322.246 180.888 M172.434 183.642 C 173.734 186.754,173.376 188.790,171.396 189.550 C 169.942 190.107,168.467 186.929,168.467 183.241 C 168.467 178.721,170.462 178.922,172.434 183.642 M286.134 181.598 C 284.708 183.024,284.830 186.322,286.330 186.897 C 288.336 187.667,289.581 185.427,288.593 182.826 C 287.607 180.233,287.535 180.197,286.134 181.598 M47.785 187.689 C 47.080 188.634,47.014 190.356,47.423 197.252 C 47.677 201.539,51.396 198.402,51.671 193.670 C 52.002 187.959,49.947 184.795,47.785 187.689 M285.648 191.021 C 284.053 193.298,285.231 196.377,287.531 195.941 C 289.402 195.586,289.900 191.542,288.242 190.166 C 287.221 189.318,286.727 189.480,285.648 191.021 M291.751 193.203 C 290.750 194.204,291.066 196.699,292.326 197.745 C 293.809 198.976,295.754 196.960,295.310 194.652 C 295.000 193.045,292.803 192.151,291.751 193.203 M53.728 197.624 C 53.888 198.456,54.592 199.136,55.292 199.136 C 55.991 199.136,56.695 198.456,56.855 197.624 C 57.059 196.563,56.593 196.112,55.292 196.112 C 53.990 196.112,53.524 196.563,53.728 197.624 M192.758 205.210 C 196.112 208.216,200.432 213.729,200.432 215.006 C 200.432 215.482,201.987 216.746,203.888 217.814 C 207.942 220.093,208.413 222.030,204.913 222.030 C 203.313 222.030,201.617 222.948,199.946 224.720 C 198.550 226.199,196.018 228.299,194.320 229.387 C 178.714 239.377,177.688 255.379,192.081 264.274 C 193.648 265.243,195.645 266.825,196.519 267.791 C 197.393 268.756,198.892 269.546,199.850 269.546 C 200.808 269.546,202.309 270.196,203.186 270.989 C 205.995 273.532,218.582 273.386,222.128 270.770 C 226.008 267.907,226.322 267.221,226.337 261.555 C 226.344 258.823,226.512 256.587,226.711 256.587 C 228.379 256.587,229.806 257.976,229.806 259.598 C 229.806 263.286,235.767 264.720,241.103 262.315 C 242.983 261.468,244.923 267.414,244.135 271.612 C 243.556 274.699,244.587 280.390,246.372 283.960 C 247.573 286.363,257.329 294.298,259.611 294.728 C 263.527 295.466,268.428 311.353,266.384 316.680 C 265.670 318.540,263.017 318.185,261.592 316.039 L 260.339 314.152 256.807 316.990 C 252.966 320.077,251.930 322.570,252.719 326.834 C 253.243 329.671,251.309 333.670,250.030 332.392 C 249.672 332.034,249.349 328.730,249.312 325.050 C 249.246 318.588,249.170 318.348,247.084 318.064 C 245.896 317.902,244.228 317.147,243.378 316.386 C 241.958 315.117,241.627 315.124,239.357 316.465 C 237.996 317.269,236.285 317.927,235.555 317.927 C 234.825 317.927,234.009 318.280,233.741 318.713 C 232.806 320.226,234.329 322.246,236.405 322.246 C 237.619 322.246,238.724 322.881,239.035 323.758 C 239.330 324.590,240.164 325.960,240.888 326.802 C 242.831 329.062,241.141 330.173,236.240 329.858 C 232.339 329.607,232.020 329.407,231.343 326.782 C 230.534 323.640,225.127 322.516,224.071 325.270 C 223.797 325.983,222.657 326.566,221.536 326.566 C 219.468 326.566,217.496 329.016,217.915 331.067 C 218.278 332.844,208.425 333.078,206.501 331.337 C 205.292 330.243,203.272 330.017,196.427 330.211 C 188.654 330.431,187.638 330.275,185.393 328.510 C 180.158 324.394,170.142 326.532,174.111 330.918 C 176.161 333.183,172.519 333.421,170.046 331.184 C 168.575 329.852,168.354 329.855,166.841 331.225 C 165.333 332.589,165.114 332.593,163.795 331.275 C 161.885 329.364,160.014 330.243,159.674 333.210 C 159.427 335.361,159.003 335.669,155.950 335.918 C 154.056 336.072,152.032 336.591,151.453 337.072 C 150.063 338.225,148.596 337.248,148.596 335.171 C 148.596 332.857,144.701 331.962,142.662 333.807 C 140.626 335.649,139.093 335.582,139.093 333.650 C 139.093 332.795,138.735 331.726,138.297 331.274 C 137.859 330.823,137.154 329.093,136.730 327.430 C 135.756 323.608,133.730 323.516,132.965 327.258 C 132.089 331.541,131.691 331.425,129.294 326.189 C 127.063 321.317,124.354 319.748,123.230 322.678 C 122.150 325.492,115.909 324.333,115.089 321.166 C 114.197 317.726,111.983 317.451,111.606 320.734 C 111.266 323.682,110.074 323.745,107.484 320.950 C 105.325 318.621,103.700 318.244,102.216 319.728 C 100.657 321.287,97.224 320.306,96.926 318.217 C 96.631 316.148,98.576 315.118,101.655 315.711 C 102.680 315.908,104.233 315.516,105.107 314.838 C 107.739 312.798,104.356 310.733,99.442 311.380 C 95.099 311.952,93.305 310.930,93.305 307.886 C 93.305 306.684,92.767 305.787,92.009 305.724 C 89.234 305.492,88.900 305.363,88.220 304.264 C 87.136 302.510,88.178 298.680,90.274 296.713 C 91.315 295.736,92.421 293.341,92.733 291.390 C 94.231 282.020,103.975 269.521,108.030 271.766 C 112.797 274.406,119.222 272.180,119.222 267.889 C 119.222 265.314,120.154 263.499,121.475 263.499 C 122.875 263.499,123.164 268.280,121.814 269.114 C 120.639 269.841,120.717 272.138,121.916 272.138 C 122.447 272.138,124.210 270.972,125.834 269.546 C 127.457 268.121,129.497 266.955,130.365 266.955 C 133.081 266.955,139.957 258.824,139.957 255.613 C 139.957 254.085,140.589 252.138,141.361 251.285 C 143.367 249.068,143.128 245.369,140.868 243.664 C 138.975 242.236,138.979 242.230,143.410 239.476 C 151.310 234.564,158.158 237.714,159.421 246.840 C 159.735 249.112,160.578 253.305,161.294 256.156 C 162.157 259.592,162.416 263.124,162.062 266.633 C 161.532 271.898,162.018 275.080,163.239 274.325 C 163.591 274.108,163.946 271.855,164.029 269.319 C 164.112 266.783,164.372 263.756,164.608 262.592 C 166.044 255.502,166.651 248.225,166.181 243.729 C 165.701 239.141,165.900 238.122,167.957 234.611 C 169.662 231.703,170.222 229.666,170.079 226.898 C 169.972 224.830,170.299 222.013,170.806 220.640 C 171.313 219.266,172.170 216.511,172.710 214.517 C 173.723 210.776,177.059 207.343,179.682 207.343 C 180.495 207.343,182.581 205.964,184.318 204.277 C 187.760 200.934,188.016 200.962,192.758 205.210 M282.650 202.418 C 281.282 204.066,283.627 207.394,285.120 205.923 C 286.294 204.767,285.952 202.012,284.579 201.555 C 284.056 201.381,283.188 201.769,282.650 202.418 M301.893 205.011 C 299.075 206.574,300.688 207.965,305.959 208.516 C 311.828 209.130,314.163 208.179,312.789 205.735 C 311.930 204.205,304.265 203.695,301.893 205.011 M62.518 208.634 C 62.218 209.413,62.388 210.466,62.894 210.972 C 64.210 212.288,66.704 211.085,66.361 209.300 C 65.978 207.311,63.209 206.831,62.518 208.634 M50.411 212.118 C 49.778 213.769,51.510 215.190,53.312 214.498 C 54.943 213.872,54.336 211.320,52.471 210.961 C 51.644 210.802,50.717 211.323,50.411 212.118 M38.013 217.279 C 38.013 220.926,37.712 222.030,36.717 222.030 C 35.722 222.030,35.421 220.926,35.421 217.279 C 35.421 213.631,35.722 212.527,36.717 212.527 C 37.712 212.527,38.013 213.631,38.013 217.279 M255.150 218.201 C 254.526 219.825,256.055 221.597,257.376 220.781 C 258.800 219.901,258.502 216.847,256.992 216.847 C 256.265 216.847,255.436 217.456,255.150 218.201 M285.425 218.101 C 284.824 219.670,285.698 221.166,287.216 221.166 C 288.525 221.166,289.669 218.818,288.937 217.633 C 288.182 216.411,285.960 216.707,285.425 218.101 M337.539 220.848 C 335.923 222.465,336.925 226.471,338.877 226.194 C 340.397 225.978,340.821 225.356,340.821 223.338 C 340.821 220.848,338.955 219.432,337.539 220.848 M285.703 226.896 C 284.170 228.429,285.066 234.989,286.809 234.989 C 288.672 234.989,289.761 232.262,289.272 228.822 C 288.990 226.836,286.894 225.705,285.703 226.896 M28.510 228.078 C 28.510 228.553,27.927 228.942,27.214 228.942 C 26.501 228.942,25.918 228.553,25.918 228.078 C 25.918 227.603,26.501 227.214,27.214 227.214 C 27.927 227.214,28.510 227.603,28.510 228.078 M119.871 230.886 C 119.673 231.479,118.766 232.103,117.855 232.271 C 116.944 232.438,115.533 233.166,114.719 233.887 C 112.061 236.243,109.926 234.504,112.332 231.943 C 114.506 229.629,120.573 228.778,119.871 230.886 M219.912 236.797 C 220.672 238.267,221.108 239.656,220.880 239.883 C 220.120 240.643,216.847 237.217,216.847 235.661 C 216.847 233.276,218.386 233.847,219.912 236.797 M212.095 238.445 C 212.095 239.078,211.609 239.759,211.015 239.957 C 210.373 240.171,209.935 239.558,209.935 238.445 C 209.935 237.331,210.373 236.719,211.015 236.933 C 211.609 237.131,212.095 237.811,212.095 238.445 M110.367 240.389 C 110.169 240.983,109.294 241.469,108.423 241.469 C 107.552 241.469,106.677 240.983,106.479 240.389 C 106.251 239.705,106.964 239.309,108.423 239.309 C 109.882 239.309,110.595 239.705,110.367 240.389 M72.019 242.333 C 71.287 244.240,72.788 245.566,75.278 245.214 C 76.649 245.020,77.322 244.356,77.322 243.197 C 77.322 240.939,72.834 240.208,72.019 242.333 M297.760 248.532 C 297.439 248.853,297.923 249.922,298.836 250.908 C 299.749 251.893,300.628 253.668,300.788 254.851 C 301.198 257.870,303.885 258.192,304.609 255.309 C 305.443 251.984,299.846 246.446,297.760 248.532 M209.414 250.186 C 209.704 250.942,209.722 251.913,209.455 252.346 C 208.745 253.494,206.684 253.306,206.247 252.052 C 205.276 249.269,208.364 247.450,209.414 250.186 M222.462 250.972 C 222.462 251.909,221.782 252.807,220.950 252.967 C 219.818 253.185,219.438 252.685,219.438 250.972 C 219.438 249.259,219.818 248.758,220.950 248.977 C 221.782 249.137,222.462 250.035,222.462 250.972 M131.749 251.404 C 131.749 252.037,131.263 252.718,130.670 252.916 C 130.027 253.130,129.590 252.517,129.590 251.404 C 129.590 250.290,130.027 249.678,130.670 249.892 C 131.263 250.090,131.749 250.770,131.749 251.404 M331.814 253.404 C 329.758 258.789,331.381 265.589,333.926 262.254 C 335.552 260.123,335.578 254.834,333.974 252.649 C 332.786 251.031,332.710 251.058,331.814 253.404 M98.769 255.428 C 99.547 256.207,97.688 258.315,96.223 258.315 C 94.737 258.315,94.649 256.022,96.112 255.432 C 97.690 254.795,98.135 254.795,98.769 255.428 M219.778 257.090 C 220.861 259.913,220.357 265.227,219.006 265.227 C 218.012 265.227,217.711 264.123,217.711 260.475 C 217.711 255.885,218.696 254.271,219.778 257.090 M29.374 261.834 C 29.374 264.048,32.233 263.797,32.667 261.545 C 32.866 260.508,32.401 260.043,31.165 260.043 C 29.928 260.043,29.374 260.598,29.374 261.834 M313.085 262.281 C 313.741 263.990,313.032 265.227,311.396 265.227 C 310.711 265.227,310.151 264.514,310.151 263.643 C 310.151 260.845,312.174 259.906,313.085 262.281 M285.376 267.474 C 284.601 269.493,287.002 270.719,288.309 268.971 C 288.888 268.197,289.157 267.233,288.906 266.827 C 288.147 265.598,285.941 266.002,285.376 267.474 M327.645 270.380 C 326.993 271.429,325.795 272.036,324.624 271.912 C 323.192 271.760,322.611 272.215,322.405 273.650 C 322.080 275.914,326.016 276.546,326.853 274.365 C 327.112 273.689,328.223 273.009,329.321 272.853 C 330.642 272.666,331.317 271.990,331.317 270.854 C 331.317 268.533,328.981 268.232,327.645 270.380 M62.125 276.119 C 60.769 277.753,63.154 280.157,65.311 279.330 C 66.954 278.699,66.848 275.904,65.156 275.254 C 63.344 274.559,63.444 274.531,62.125 276.119 M285.218 275.881 C 283.511 277.937,286.292 280.766,288.186 278.901 C 289.801 277.310,289.308 274.730,287.390 274.730 C 286.720 274.730,285.743 275.248,285.218 275.881 M115.335 276.458 C 114.404 277.963,115.783 279.247,117.130 278.130 C 117.795 277.578,118.126 276.781,117.866 276.360 C 117.236 275.340,115.996 275.388,115.335 276.458 M57.382 289.305 C 57.638 289.719,57.098 290.921,56.183 291.977 C 55.267 293.033,54.378 294.318,54.206 294.833 C 53.870 295.841,51.836 294.956,51.836 293.802 C 51.836 291.426,56.404 287.722,57.382 289.305 M123.944 297.241 C 123.104 298.600,124.316 302.550,125.456 302.170 C 127.039 301.642,128.182 299.274,127.594 297.742 C 126.984 296.151,124.802 295.852,123.944 297.241 M132.727 310.758 C 131.040 312.445,132.769 318.790,134.916 318.790 C 136.124 318.790,137.469 315.295,136.922 313.573 C 136.334 311.721,133.599 309.885,132.727 310.758 M154.400 321.634 C 154.147 322.295,154.253 323.342,154.636 323.962 C 155.605 325.530,158.293 324.319,157.937 322.475 C 157.578 320.610,155.026 320.003,154.400 321.634 M267.819 321.814 C 267.819 322.527,267.430 323.110,266.955 323.110 C 266.479 323.110,266.091 322.527,266.091 321.814 C 266.091 321.102,266.479 320.518,266.955 320.518 C 267.430 320.518,267.819 321.102,267.819 321.814 M187.953 323.896 C 187.032 325.386,188.527 327.430,190.538 327.430 C 193.047 327.430,194.003 326.028,192.625 324.368 C 191.460 322.965,188.701 322.686,187.953 323.896 M81.210 325.702 C 81.210 326.652,81.728 327.430,82.361 327.430 C 83.986 327.430,84.623 326.598,84.081 325.186 C 83.376 323.348,81.210 323.738,81.210 325.702 M212.202 325.303 C 211.907 326.073,212.255 326.847,213.032 327.145 C 214.645 327.764,216.410 326.229,215.597 324.913 C 214.750 323.542,212.792 323.766,212.202 325.303 M86.905 334.011 C 86.592 334.827,86.712 335.869,87.171 336.328 C 88.419 337.577,90.883 336.295,90.551 334.570 C 90.161 332.548,87.617 332.158,86.905 334.011 M76.242 339.281 C 74.421 339.935,74.955 342.981,76.890 342.981 C 78.024 342.981,78.618 342.405,78.618 341.304 C 78.618 339.399,77.816 338.717,76.242 339.281 M112.311 340.749 C 112.311 341.501,112.927 342.117,113.679 342.117 C 115.205 342.117,114.939 340.257,113.337 339.723 C 112.773 339.535,112.311 339.996,112.311 340.749 M181.559 348.686 C 181.153 350.920,180.702 351.242,179.569 350.108 C 178.359 348.899,179.322 346.161,180.778 346.670 C 181.372 346.878,181.723 347.785,181.559 348.686 M285.425 349.419 C 284.824 350.987,285.698 352.484,287.216 352.484 C 288.792 352.484,289.500 350.321,288.313 349.133 C 286.997 347.817,286.002 347.916,285.425 349.419 M258.102 352.655 C 257.815 355.303,258.072 356.674,258.998 357.424 C 261.032 359.071,261.801 357.900,261.561 353.520 C 261.252 347.893,258.688 347.251,258.102 352.655 M218.575 351.946 C 218.575 353.076,219.158 354.484,219.870 355.076 C 221.540 356.461,221.547 361.460,219.881 362.842 C 217.626 364.713,216.135 363.267,216.164 359.236 C 216.179 357.185,216.098 355.119,215.985 354.644 C 215.871 354.168,215.824 352.905,215.880 351.836 C 216.021 349.173,218.575 349.278,218.575 351.946 M166.108 357.451 C 165.765 359.692,165.272 360.259,163.668 360.259 C 161.283 360.259,160.194 358.927,161.771 357.936 C 162.385 357.551,163.397 356.078,164.020 354.662 C 165.439 351.441,166.758 353.203,166.108 357.451 M197.266 355.566 C 196.546 357.442,198.374 359.207,199.683 357.898 C 200.789 356.792,200.104 354.212,198.704 354.212 C 198.199 354.212,197.552 354.821,197.266 355.566 M142.616 358.018 C 141.398 359.486,142.046 361.123,143.844 361.123 C 145.715 361.123,146.336 359.357,144.952 357.973 C 143.853 356.874,143.561 356.880,142.616 358.018 M190.929 362.419 C 190.929 363.132,191.512 363.715,192.225 363.715 C 192.937 363.715,193.521 363.132,193.521 362.419 C 193.521 361.706,192.937 361.123,192.225 361.123 C 191.512 361.123,190.929 361.706,190.929 362.419 M310.330 367.387 C 309.050 368.930,310.449 371.029,312.288 370.323 C 313.840 369.727,313.795 367.088,312.225 366.565 C 311.702 366.392,310.850 366.761,310.330 367.387 M90.264 370.654 C 89.928 371.197,90.060 372.047,90.557 372.544 C 91.718 373.705,94.425 372.693,93.953 371.274 C 93.472 369.830,91.027 369.419,90.264 370.654 M200.926 373.712 C 198.984 375.653,199.033 384.298,200.989 385.049 C 202.900 385.782,204.619 383.281,204.093 380.530 C 203.833 379.171,204.246 377.710,205.182 376.676 C 208.143 373.404,204.070 370.567,200.926 373.712 M87.851 376.368 C 86.664 377.555,87.280 379.388,88.769 379.101 C 89.600 378.941,90.281 378.265,90.281 377.598 C 90.281 376.234,88.757 375.462,87.851 376.368 M185.337 382.937 C 185.142 383.531,184.858 384.792,184.705 385.738 C 184.521 386.881,183.561 387.608,181.847 387.901 C 178.728 388.434,177.303 394.529,178.346 402.878 C 179.485 411.994,183.742 407.950,182.868 398.583 C 182.352 393.060,183.420 390.508,185.038 393.399 C 186.272 395.604,189.495 395.074,192.234 392.215 L 194.726 389.614 190.919 385.736 C 186.923 381.664,185.919 381.161,185.337 382.937 M375.388 388.825 C 376.343 389.697,378.799 390.678,380.845 391.005 C 384.345 391.565,387.041 393.204,387.041 394.772 C 387.041 397.736,369.587 399.445,368.080 396.629 C 364.397 389.747,369.926 383.842,375.388 388.825 M197.552 388.481 C 196.641 389.392,196.883 393.793,197.878 394.408 C 199.145 395.191,201.302 393.195,201.036 391.487 C 200.581 388.570,198.907 387.126,197.552 388.481 " stroke="none" fill="#000000" fill-rule="evenodd"></path></g></svg>