<svg id="svg" version="1.1" xmlns="http://www.w3.org/2000/svg" xmlns:xlink="http://www.w3.org/1999/xlink" width="400" height="400" viewBox="0, 0, 400,400"><g id="svgg"><path id="path0" d="M256.546 5.006 C 254.818 6.485,252.551 9.380,251.507 11.439 C 250.463 13.498,248.632 16.580,247.438 18.287 C 246.244 19.994,244.518 23.873,243.603 26.906 C 242.688 29.940,241.507 33.125,240.978 33.984 C 240.450 34.844,239.621 36.803,239.135 38.338 C 238.649 39.872,237.020 42.322,235.515 43.781 C 233.540 45.695,232.325 47.951,231.156 51.879 C 229.327 58.021,224.481 64.558,221.150 65.379 C 220.045 65.651,216.328 67.179,212.891 68.774 C 205.191 72.348,198.736 74.495,197.671 73.837 C 197.230 73.565,193.619 73.006,189.646 72.595 C 185.673 72.185,179.434 70.937,175.781 69.822 C 163.104 65.952,146.747 71.783,142.629 81.640 C 141.554 84.212,135.596 89.580,129.688 93.299 C 127.754 94.517,125.469 96.139,124.609 96.905 C 123.750 97.670,121.231 99.295,119.012 100.516 C 116.535 101.878,108.955 108.615,99.377 117.969 C 90.797 126.348,81.007 135.377,77.622 138.033 C 69.084 144.732,68.212 146.144,65.482 157.685 C 63.884 164.445,61.947 170.052,59.366 175.391 C 55.645 183.087,52.105 193.038,51.150 198.486 C 50.498 202.208,45.825 204.579,33.455 207.465 C 32.304 207.734,31.173 208.449,30.940 209.055 C 30.703 209.674,29.460 210.156,28.105 210.156 C 25.118 210.156,18.695 211.682,17.391 212.701 C 16.859 213.118,15.208 213.230,13.723 212.952 C 10.520 212.351,9.612 213.532,8.664 219.529 C 8.048 223.425,10.988 227.589,13.332 226.140 C 13.772 225.869,14.698 226.116,15.392 226.691 C 16.241 227.393,19.103 227.749,24.147 227.780 C 28.268 227.805,34.485 228.115,37.961 228.468 C 43.854 229.067,44.386 228.997,45.839 227.437 C 47.317 225.851,47.457 225.835,48.529 227.140 C 50.866 229.985,53.351 235.467,53.538 238.192 C 53.849 242.718,57.682 253.632,59.878 256.241 C 60.987 257.559,62.221 260.088,62.619 261.861 C 63.017 263.633,64.941 267.466,66.895 270.377 C 71.825 277.725,71.993 279.976,68.300 289.132 C 66.669 293.176,64.800 296.885,64.146 297.374 C 63.492 297.863,62.063 299.997,60.971 302.116 C 59.878 304.235,57.858 307.658,56.480 309.723 C 49.752 319.809,51.412 326.728,61.021 328.649 C 63.882 329.222,70.520 322.988,71.322 318.974 C 71.643 317.372,73.236 315.364,76.191 312.839 C 78.607 310.775,81.270 307.743,82.108 306.100 C 85.940 298.589,91.968 294.448,93.661 298.164 C 94.180 299.302,96.609 302.537,99.060 305.352 C 101.511 308.168,104.043 311.112,104.688 311.895 C 107.839 315.725,109.781 317.149,114.009 318.730 C 116.538 319.676,119.429 321.332,120.436 322.410 C 121.442 323.488,123.624 325.067,125.284 325.918 C 126.944 326.769,129.856 329.065,131.756 331.019 C 134.665 334.013,135.790 334.634,138.894 334.961 C 140.920 335.174,147.042 337.253,152.499 339.581 C 158.843 342.288,164.785 344.227,168.979 344.959 C 172.587 345.589,178.048 346.981,181.114 348.052 C 187.526 350.292,190.549 350.437,198.549 348.885 C 201.710 348.272,205.527 347.781,207.031 347.792 C 211.015 347.823,226.467 345.561,229.875 344.447 C 233.846 343.150,236.031 344.914,235.385 348.895 C 235.121 350.518,235.274 351.563,235.775 351.563 C 240.565 351.563,242.344 358.961,240.190 369.922 C 239.812 371.845,240.160 372.677,242.130 374.560 C 243.754 376.112,244.531 377.604,244.531 379.170 C 244.531 388.791,255.430 396.787,258.643 389.523 C 260.386 385.584,261.921 370.817,261.750 359.637 C 261.652 353.240,261.819 352.311,263.318 350.914 C 264.645 349.679,264.884 348.838,264.461 346.909 C 264.162 345.547,264.276 344.043,264.720 343.508 C 265.158 342.981,265.929 340.095,266.434 337.095 C 267.611 330.102,268.429 328.894,274.382 325.356 C 277.085 323.750,280.176 321.598,281.250 320.573 C 282.324 319.549,284.633 317.753,286.381 316.582 C 289.892 314.230,297.327 306.356,301.563 300.504 C 303.066 298.426,306.088 294.549,308.277 291.889 C 315.429 283.198,320.303 272.628,320.317 265.780 C 320.324 262.307,321.749 258.232,324.227 254.599 C 328.327 248.586,330.492 240.203,330.344 230.912 C 330.160 219.475,332.262 215.895,340.291 213.965 C 348.017 212.108,353.852 209.720,356.230 207.441 C 357.362 206.356,358.797 205.461,359.418 205.452 C 360.039 205.442,362.129 204.705,364.063 203.812 C 367.553 202.202,374.148 200.898,381.641 200.336 C 389.339 199.760,393.750 196.095,393.750 190.277 C 393.750 186.160,376.919 182.693,368.378 185.051 C 366.187 185.656,365.049 185.651,364.302 185.031 C 363.703 184.534,359.400 184.110,354.094 184.027 C 345.628 183.893,344.411 183.675,338.287 181.199 C 330.838 178.186,330.737 178.029,330.561 169.167 C 330.428 162.426,328.320 156.771,322.689 148.047 C 320.747 145.039,318.594 141.348,317.904 139.844 C 317.213 138.340,314.522 134.438,311.924 131.172 C 309.325 127.907,306.309 123.864,305.221 122.188 C 304.133 120.512,300.234 116.006,296.556 112.176 C 292.878 108.345,289.120 104.119,288.206 102.785 C 287.292 101.451,285.168 99.371,283.487 98.162 C 281.786 96.939,279.581 94.290,278.518 92.191 C 276.334 87.882,274.739 86.606,265.950 82.141 C 257.428 77.811,256.259 75.771,258.547 69.214 C 260.370 63.987,260.557 61.110,259.260 58.263 C 258.630 56.879,258.608 56.000,259.187 55.297 C 260.586 53.597,261.094 47.458,260.143 43.750 C 259.070 39.564,259.069 39.758,260.159 30.859 C 260.632 26.992,261.014 23.301,261.008 22.656 C 261.001 22.012,261.375 19.701,261.839 17.521 C 262.534 14.260,262.466 13.139,261.460 11.192 C 260.623 9.573,260.490 8.573,261.039 8.024 C 262.029 7.034,261.630 2.954,260.508 2.586 C 260.056 2.438,258.273 3.527,256.546 5.006 M188.309 113.230 C 187.864 114.061,187.500 115.819,187.500 117.136 C 187.500 119.097,187.181 119.533,185.742 119.539 C 184.370 119.545,182.902 121.255,179.050 127.335 C 176.336 131.619,173.084 135.858,171.823 136.756 C 170.563 137.653,169.531 138.879,169.531 139.479 C 169.531 140.079,168.798 140.962,167.903 141.442 C 167.007 141.921,165.785 143.483,165.188 144.913 C 164.590 146.343,163.085 148.336,161.842 149.342 C 159.086 151.573,156.848 154.966,157.178 156.411 C 157.312 156.998,155.734 159.400,153.671 161.747 C 151.608 164.095,147.378 170.410,144.271 175.781 L 138.623 185.547 131.225 185.306 C 125.070 185.106,123.041 185.361,119.141 186.825 C 115.513 188.186,112.746 188.594,106.905 188.628 C 100.246 188.667,99.064 188.888,96.868 190.510 C 93.835 192.748,92.737 191.964,93.716 188.258 C 94.109 186.767,94.817 184.061,95.288 182.245 C 95.759 180.429,97.539 177.331,99.244 175.362 C 100.985 173.350,102.344 170.965,102.344 169.920 C 102.344 168.898,102.697 167.843,103.129 167.576 C 103.561 167.309,105.377 164.915,107.166 162.256 C 108.955 159.597,112.117 155.370,114.194 152.861 C 116.270 150.353,117.969 147.641,117.969 146.834 C 117.969 146.027,118.760 144.958,119.727 144.457 C 120.693 143.957,122.539 142.515,123.828 141.253 C 128.436 136.741,134.447 132.031,135.597 132.031 C 136.241 132.031,136.970 131.504,137.217 130.859 C 137.465 130.215,138.145 129.688,138.728 129.688 C 139.312 129.688,141.013 128.613,142.509 127.300 C 144.004 125.987,145.687 125.002,146.247 125.112 C 146.807 125.222,148.734 124.545,150.529 123.607 C 152.323 122.669,156.542 121.150,159.904 120.232 C 163.265 119.313,167.773 117.674,169.922 116.588 C 172.495 115.287,175.561 114.500,178.906 114.279 C 181.699 114.096,184.863 113.482,185.938 112.915 C 188.724 111.445,189.228 111.512,188.309 113.230 M224.561 114.369 C 224.291 115.445,224.629 117.278,225.359 118.689 C 226.526 120.946,226.527 121.725,225.376 128.487 C 224.268 134.988,224.257 136.088,225.275 138.058 C 226.100 139.653,226.202 140.682,225.637 141.692 C 225.192 142.486,225.083 144.520,225.387 146.355 C 225.684 148.145,226.005 154.355,226.101 160.156 C 226.198 165.957,226.720 173.025,227.261 175.864 C 229.115 185.578,226.201 190.372,219.638 188.406 C 215.672 187.217,212.249 187.260,209.155 188.538 C 207.720 189.130,204.628 189.473,201.953 189.336 C 190.580 188.757,176.746 188.172,174.414 188.171 C 173.018 188.171,171.875 187.953,171.875 187.688 C 171.875 186.484,175.419 182.271,177.632 180.845 C 178.977 179.978,180.430 178.215,180.859 176.928 C 181.289 175.640,182.433 173.799,183.403 172.836 C 184.372 171.873,185.601 169.452,186.135 167.455 C 187.059 164.002,192.011 158.652,193.809 159.165 C 194.690 159.416,197.656 155.510,197.656 154.098 C 197.656 153.461,198.859 150.959,200.329 148.540 C 201.798 146.120,203.768 142.090,204.705 139.584 C 205.643 137.078,207.429 133.868,208.674 132.450 C 209.919 131.032,210.938 129.346,210.938 128.703 C 210.938 128.061,211.502 127.067,212.192 126.494 C 212.881 125.922,214.865 123.330,216.600 120.735 C 221.931 112.760,225.726 109.725,224.561 114.369 M259.550 134.180 C 260.210 134.932,261.315 136.665,262.007 138.031 C 262.698 139.397,263.975 140.740,264.844 141.016 C 265.713 141.291,266.951 142.538,267.597 143.786 C 268.242 145.033,269.672 146.527,270.776 147.105 C 273.512 148.539,282.813 160.841,282.813 163.026 C 282.813 163.996,283.799 165.944,285.005 167.356 C 286.211 168.767,287.656 171.504,288.217 173.438 C 288.778 175.371,289.909 178.246,290.730 179.826 C 292.626 183.473,292.145 183.810,283.984 184.555 C 275.682 185.313,274.769 185.455,273.687 186.151 C 273.179 186.477,272.540 186.381,272.265 185.937 C 271.949 185.425,269.567 185.303,265.766 185.604 C 257.331 186.273,256.484 185.557,257.753 178.829 C 258.377 175.524,258.448 173.153,257.962 171.869 C 257.556 170.798,256.966 167.343,256.651 164.191 C 256.336 161.039,255.616 156.473,255.051 154.043 C 254.346 151.011,254.275 149.325,254.823 148.665 C 255.302 148.088,255.406 146.133,255.084 143.790 C 254.189 137.286,256.990 131.260,259.550 134.180 M298.765 214.115 C 302.452 211.055,302.627 220.159,299.035 228.125 C 297.969 230.488,295.049 237.863,292.545 244.514 C 290.041 251.164,287.179 257.805,286.184 259.271 C 285.189 260.737,284.375 262.361,284.375 262.879 C 284.375 263.397,283.634 264.490,282.729 265.309 C 281.824 266.127,280.417 268.104,279.602 269.701 C 276.556 275.667,264.063 287.318,264.063 284.192 C 264.063 283.639,262.836 280.378,261.338 276.945 C 258.080 269.483,258.038 268.668,260.540 261.421 C 262.577 255.518,262.889 243.754,261.131 239.122 C 260.644 237.839,260.730 236.578,261.396 235.216 C 262.299 233.370,261.959 222.655,260.873 218.750 C 260.606 217.791,261.822 217.507,267.578 217.188 C 271.445 216.973,275.025 216.527,275.532 216.198 C 276.039 215.869,276.640 215.900,276.867 216.267 C 278.118 218.290,295.757 215.565,294.954 213.473 C 294.542 212.401,294.717 212.426,296.045 213.628 C 297.308 214.771,297.856 214.869,298.765 214.115 M178.760 217.974 C 186.712 219.880,190.502 219.980,191.146 218.301 C 191.466 217.466,192.196 217.216,193.417 217.523 C 194.407 217.771,195.445 217.605,195.725 217.152 C 196.075 216.586,196.535 216.581,197.206 217.138 C 198.117 217.894,213.541 219.653,220.884 219.838 C 227.926 220.016,233.324 231.024,230.124 238.681 C 228.958 241.473,228.140 255.744,229.092 256.696 C 229.385 256.990,229.106 258.472,228.472 259.991 C 227.837 261.509,227.500 263.323,227.721 264.020 C 227.943 264.718,228.295 269.246,228.504 274.082 C 228.714 278.919,229.274 283.602,229.749 284.491 C 230.387 285.683,230.363 287.438,229.654 291.191 C 229.127 293.988,228.886 298.608,229.119 301.458 C 229.988 312.061,216.560 319.044,199.470 316.878 C 196.466 316.497,194.106 316.566,193.221 317.062 C 192.159 317.656,191.440 317.534,190.386 316.581 C 189.279 315.579,188.670 315.494,187.558 316.188 C 186.232 317.017,181.987 316.500,178.125 315.040 C 177.480 314.797,176.449 314.683,175.833 314.788 C 172.948 315.278,167.707 313.791,165.397 311.825 C 162.978 309.767,152.717 304.688,150.978 304.688 C 150.510 304.688,148.274 303.105,146.009 301.172 C 143.744 299.238,141.640 297.656,141.335 297.656 C 141.029 297.656,140.053 296.426,139.166 294.922 C 138.279 293.418,136.999 292.188,136.323 292.188 C 134.252 292.188,129.046 289.171,128.580 287.701 C 128.337 286.938,127.362 285.966,126.411 285.540 C 125.460 285.114,123.401 282.907,121.835 280.636 C 120.269 278.364,118.055 275.532,116.916 274.343 C 114.276 271.587,114.299 271.295,117.576 265.859 C 119.079 263.367,120.309 260.578,120.310 259.660 C 120.312 258.743,121.191 257.416,122.266 256.712 C 123.340 256.009,124.219 254.943,124.219 254.344 C 124.219 252.040,132.248 241.407,138.249 235.767 C 141.704 232.519,144.531 229.499,144.531 229.057 C 144.531 228.614,145.705 227.527,147.140 226.640 C 148.575 225.753,150.082 224.281,150.489 223.369 C 151.204 221.767,154.558 220.151,160.056 218.758 C 161.505 218.391,163.070 217.711,163.533 217.248 C 164.842 215.939,171.620 216.262,178.760 217.974 M102.894 224.126 C 103.412 224.177,102.972 225.082,101.918 226.136 C 100.863 227.191,100.000 228.906,100.000 229.947 C 100.000 230.988,99.463 232.285,98.807 232.830 C 97.276 234.101,93.398 239.846,91.313 243.932 C 89.645 247.203,88.321 246.946,88.293 243.345 C 88.287 242.478,87.380 240.442,86.278 238.821 C 84.472 236.164,84.365 235.602,85.184 233.119 C 85.684 231.605,85.911 229.672,85.690 228.825 C 84.721 225.121,92.214 223.075,102.894 224.126 " stroke="none" fill="#000000" fill-rule="evenodd"></path></g></svg>