<svg id="svg" version="1.1" xmlns="http://www.w3.org/2000/svg" xmlns:xlink="http://www.w3.org/1999/xlink" width="400" height="400" viewBox="0, 0, 400,400"><g id="svgg"><path id="path0" d="M143.232 9.034 C 142.781 10.210,143.525 12.928,146.682 21.642 C 147.491 23.878,149.712 27.411,151.616 29.494 C 156.357 34.680,158.594 37.416,158.594 38.026 C 158.594 38.309,159.111 39.098,159.743 39.778 C 164.488 44.889,166.545 46.875,167.092 46.875 C 169.299 46.875,170.571 50.034,168.966 51.529 C 168.079 52.355,167.229 52.907,167.075 52.755 C 166.922 52.603,165.303 52.753,163.477 53.088 C 160.913 53.558,160.156 53.457,160.156 52.644 C 160.156 52.066,159.189 51.384,158.008 51.130 C 156.826 50.876,154.550 50.117,152.950 49.443 C 149.027 47.792,143.512 47.472,144.071 48.929 C 144.611 50.336,144.128 50.289,139.063 48.438 C 134.672 46.833,127.344 46.308,127.344 47.599 C 127.344 47.997,127.959 48.484,128.711 48.680 C 129.463 48.877,127.876 49.078,125.185 49.128 C 119.416 49.235,114.209 51.962,114.088 54.939 C 114.043 56.069,111.874 57.813,110.514 57.813 C 108.908 57.813,102.965 60.970,102.131 62.266 C 101.799 62.782,101.092 63.661,100.559 64.219 C 95.419 69.606,88.663 85.234,92.383 83.135 C 93.164 82.694,93.164 82.794,92.383 83.635 C 91.846 84.214,91.406 85.266,91.406 85.974 C 91.406 86.681,89.121 89.335,86.327 91.872 C 81.996 95.805,80.303 98.027,80.117 100.021 C 80.095 100.247,78.827 102.005,77.298 103.927 C 74.749 107.130,71.875 114.299,71.875 117.451 C 71.875 118.166,71.523 118.750,71.094 118.750 C 70.664 118.750,70.308 119.189,70.303 119.727 C 70.297 120.264,69.274 122.712,68.029 125.166 C 64.377 132.366,61.914 140.714,64.474 137.213 C 65.211 136.205,65.555 136.118,65.808 136.873 C 66.153 137.901,63.454 144.394,61.906 146.259 C 61.445 146.815,60.372 149.026,59.523 151.174 C 57.842 155.427,54.841 162.224,51.937 168.359 C 49.146 174.257,48.367 183.133,50.771 181.647 C 51.126 181.428,51.220 180.499,50.980 179.582 C 50.666 178.380,50.849 178.020,51.639 178.289 C 52.382 178.542,52.665 179.644,52.519 181.714 C 52.267 185.292,52.172 192.702,52.279 200.391 C 52.383 207.742,52.104 210.436,51.172 211.118 C 50.675 211.481,50.888 212.571,51.758 214.111 C 52.729 215.831,53.126 218.268,53.129 222.524 C 53.132 225.820,53.510 229.870,53.969 231.525 C 54.572 233.695,54.558 235.656,53.920 238.556 C 53.434 240.768,52.853 243.447,52.631 244.510 L 52.227 246.442 53.980 244.901 L 55.734 243.359 53.935 245.840 C 52.201 248.232,52.170 248.539,53.079 254.434 C 54.509 263.714,54.532 264.066,53.731 264.562 C 52.751 265.167,53.461 268.730,56.192 276.910 C 58.514 283.864,58.717 285.885,56.549 280.469 C 55.329 277.419,53.416 275.994,54.190 278.711 C 54.987 281.508,56.351 289.077,56.669 292.465 C 56.957 295.538,63.924 310.569,66.590 313.867 C 67.024 314.404,67.072 314.846,66.697 314.850 C 65.730 314.858,64.021 318.797,64.533 319.836 C 64.768 320.313,64.423 320.044,63.767 319.238 C 62.029 317.101,60.156 318.172,60.156 321.304 C 60.156 322.735,59.834 324.240,59.441 324.648 C 59.047 325.057,58.527 326.676,58.285 328.246 C 57.541 333.072,55.004 338.647,53.414 338.951 C 51.440 339.329,50.000 340.581,50.000 341.920 C 50.000 342.790,50.339 342.842,51.598 342.168 C 53.078 341.376,53.122 341.434,52.184 342.947 C 51.627 343.845,50.144 344.848,48.887 345.176 C 42.249 346.907,40.106 364.033,45.884 369.179 C 49.637 372.522,50.785 373.438,51.224 373.437 C 51.468 373.437,52.819 374.316,54.227 375.391 C 55.636 376.465,57.166 377.344,57.628 377.344 C 58.089 377.344,59.462 377.866,60.679 378.503 C 67.172 381.908,79.117 386.513,84.123 387.542 C 85.918 387.911,88.730 388.776,90.373 389.465 C 100.799 393.835,144.792 395.844,162.109 392.740 C 166.406 391.970,173.086 390.774,176.953 390.081 C 180.820 389.389,186.797 388.371,190.234 387.819 C 198.629 386.471,209.704 383.630,210.028 382.741 C 210.172 382.345,210.603 382.215,210.986 382.452 C 211.369 382.689,213.185 382.477,215.021 381.981 C 218.362 381.080,224.986 379.943,230.859 379.264 C 242.009 377.976,252.366 376.440,254.699 375.730 C 256.197 375.275,259.180 374.615,261.328 374.264 C 263.477 373.914,267.871 373.031,271.094 372.302 C 274.316 371.574,279.766 370.690,283.203 370.339 C 289.028 369.743,303.823 367.099,315.637 364.541 C 318.437 363.935,322.749 363.187,325.218 362.878 C 327.688 362.570,329.881 362.038,330.093 361.695 C 330.304 361.353,331.940 360.826,333.727 360.524 C 335.515 360.222,339.442 359.137,342.454 358.113 C 345.466 357.088,348.450 356.250,349.086 356.250 C 349.722 356.250,351.894 355.459,353.914 354.492 L 357.586 352.734 358.049 347.405 C 358.304 344.473,358.172 341.181,357.757 340.088 C 357.341 338.995,356.810 334.890,356.576 330.965 C 355.915 319.888,354.454 316.938,352.461 322.656 C 352.011 323.945,351.429 325.000,351.166 325.000 C 350.904 325.000,350.931 324.609,351.226 324.131 C 351.521 323.654,351.278 322.956,350.686 322.581 C 349.848 322.050,349.931 321.896,351.061 321.887 C 352.213 321.877,352.413 321.477,352.029 319.946 C 351.763 318.885,351.520 314.842,351.490 310.961 C 351.459 307.081,351.112 303.906,350.717 303.906 C 350.323 303.906,350.000 304.434,350.000 305.078 C 350.000 305.723,349.692 306.250,349.316 306.250 C 348.940 306.250,348.340 307.393,347.981 308.789 C 347.406 311.032,347.299 310.740,347.061 306.280 C 346.913 303.503,346.459 300.830,346.052 300.340 C 345.645 299.849,345.184 295.168,345.029 289.936 C 344.704 279.029,344.436 278.205,342.966 283.602 C 342.383 285.746,341.655 287.500,341.349 287.500 C 340.151 287.500,340.014 285.201,341.041 282.319 C 342.510 278.198,342.445 277.130,340.625 275.572 C 339.766 274.836,339.070 273.615,339.080 272.859 C 339.094 271.730,339.383 271.833,340.699 273.438 L 342.301 275.391 341.784 272.266 C 341.500 270.547,341.210 269.122,341.141 269.099 C 341.072 269.077,340.049 268.454,338.867 267.714 C 336.781 266.409,336.719 266.417,336.719 267.997 C 336.719 268.891,337.065 269.409,337.488 269.148 C 337.951 268.862,338.119 269.544,337.909 270.860 C 337.209 275.254,336.404 280.879,336.367 281.641 C 336.346 282.070,336.101 282.598,335.822 282.813 C 335.544 283.027,334.748 284.434,334.053 285.938 C 333.358 287.441,332.999 287.969,333.255 287.109 C 334.172 284.031,335.194 276.475,334.784 275.811 C 334.554 275.438,334.807 274.974,335.347 274.778 C 336.094 274.508,336.119 274.066,335.449 272.926 C 334.784 271.792,334.853 270.204,335.735 266.378 C 337.230 259.892,338.181 205.469,336.799 205.469 C 336.325 205.469,335.938 205.996,335.938 206.641 C 335.938 207.285,335.631 207.813,335.257 207.813 C 334.883 207.813,334.343 209.570,334.058 211.719 C 333.773 213.867,333.177 215.625,332.733 215.625 C 331.995 215.625,332.194 214.321,333.435 211.026 C 333.691 210.347,333.435 210.079,332.750 210.307 C 332.150 210.507,331.243 211.874,330.735 213.343 C 328.475 219.890,327.341 224.312,327.308 226.709 C 327.289 228.132,326.416 232.637,325.369 236.719 C 323.527 243.896,323.433 243.039,324.984 233.203 C 325.391 230.625,326.128 225.879,326.623 222.656 C 327.118 219.434,328.050 215.606,328.693 214.150 C 330.462 210.148,332.089 196.279,331.225 192.555 C 330.830 190.849,330.482 187.520,330.453 185.156 C 330.424 182.793,329.877 179.453,329.237 177.734 C 325.265 167.061,325.408 168.220,326.252 153.516 C 326.726 145.272,326.969 143.866,327.542 146.049 C 327.930 147.529,328.777 149.463,329.423 150.346 C 331.260 152.857,330.560 132.721,328.680 128.982 C 327.945 127.519,327.344 125.983,327.344 125.569 C 327.344 125.155,326.377 123.646,325.195 122.218 C 324.014 120.789,322.184 118.545,321.130 117.232 C 319.030 114.615,317.969 114.207,317.969 116.016 C 317.969 116.660,318.408 117.193,318.945 117.199 C 319.652 117.208,319.625 117.400,318.845 117.893 C 318.253 118.268,317.956 118.878,318.185 119.249 C 319.088 120.711,319.660 135.937,318.812 135.938 C 318.348 135.938,317.969 136.465,317.969 137.109 C 317.969 137.754,317.617 138.281,317.188 138.281 C 316.145 138.281,316.186 131.559,317.241 129.588 C 317.831 128.485,317.833 125.589,317.248 119.679 L 316.421 111.328 312.120 107.422 C 309.754 105.273,306.562 102.637,305.027 101.563 C 303.492 100.488,301.243 98.818,300.029 97.852 C 298.815 96.885,297.298 96.094,296.658 96.094 C 296.018 96.094,295.293 95.479,295.047 94.727 C 294.540 93.177,290.941 86.928,289.535 85.156 C 289.023 84.512,288.092 82.932,287.466 81.645 C 286.496 79.652,278.583 71.381,272.493 65.995 C 271.509 65.125,269.121 62.549,267.188 60.272 C 265.254 57.994,262.881 55.227,261.914 54.123 C 260.947 53.019,260.145 51.903,260.132 51.644 C 259.992 48.951,256.028 48.262,247.776 49.495 C 243.199 50.179,233.125 51.464,225.391 52.351 C 217.656 53.238,210.061 54.301,208.513 54.713 C 206.407 55.274,205.127 55.181,203.435 54.344 C 202.190 53.729,199.671 53.079,197.837 52.900 C 191.354 52.268,191.973 51.591,201.532 48.862 C 212.590 45.706,218.246 39.570,217.629 31.401 C 217.140 24.933,203.953 20.867,198.770 25.586 C 197.472 26.768,195.196 28.729,193.713 29.945 C 192.229 31.161,190.113 33.405,189.011 34.932 C 187.491 37.036,185.926 38.042,182.545 39.088 L 178.084 40.469 176.933 38.242 C 176.299 37.017,175.781 35.619,175.781 35.136 C 175.781 34.652,174.199 32.200,172.266 29.687 C 170.332 27.175,168.750 24.858,168.750 24.540 C 168.750 23.650,160.864 16.488,159.357 16.010 C 158.625 15.777,156.550 13.838,154.747 11.700 C 151.180 7.469,144.432 5.907,143.232 9.034 M131.064 57.568 C 130.317 57.764,128.911 57.771,127.939 57.584 C 126.967 57.397,127.578 57.237,129.297 57.228 C 131.016 57.220,131.811 57.372,131.064 57.568 M123.438 58.594 C 123.438 59.023,122.950 59.375,122.355 59.375 C 121.760 59.375,120.351 59.853,119.224 60.437 C 116.964 61.610,113.288 61.260,113.269 59.870 C 113.263 59.383,112.884 59.512,112.429 60.156 C 111.829 61.004,111.679 61.033,111.886 60.259 C 112.055 59.625,113.570 59.063,115.602 58.880 C 117.489 58.710,119.204 58.401,119.412 58.192 C 120.125 57.480,123.438 57.810,123.438 58.594 M147.862 59.144 C 146.901 59.329,145.144 59.334,143.956 59.154 C 142.769 58.975,143.555 58.823,145.703 58.817 C 147.852 58.811,148.823 58.958,147.862 59.144 M110.065 62.305 C 109.480 63.057,108.391 64.375,107.646 65.234 C 106.900 66.094,104.313 69.258,101.897 72.266 C 99.481 75.273,97.147 78.086,96.710 78.516 C 95.077 80.121,98.513 74.218,100.389 72.194 C 101.464 71.034,102.344 69.608,102.344 69.027 C 102.344 68.445,102.882 67.969,103.540 67.969 C 104.198 67.969,104.961 67.383,105.236 66.666 C 105.680 65.511,110.089 61.019,110.838 60.960 C 110.998 60.948,110.650 61.553,110.065 62.305 M249.623 65.764 C 249.434 68.173,248.112 69.338,245.412 69.476 C 244.503 69.523,244.503 69.332,245.412 68.224 C 246.367 67.059,246.292 66.966,244.727 67.370 C 243.667 67.643,242.948 67.464,242.916 66.919 C 242.887 66.422,242.482 66.807,242.015 67.773 C 241.549 68.740,240.497 69.531,239.678 69.531 C 238.859 69.531,238.406 69.180,238.672 68.750 C 238.937 68.320,239.661 67.969,240.280 67.969 C 240.900 67.969,241.406 67.465,241.406 66.850 C 241.406 65.733,244.292 64.344,245.046 65.098 C 245.264 65.316,246.129 64.808,246.969 63.969 C 248.939 61.998,249.870 62.628,249.623 65.764 M109.375 69.791 C 109.375 69.934,107.881 71.241,106.055 72.695 L 102.734 75.339 105.078 72.492 C 107.001 70.156,109.375 68.664,109.375 69.791 M196.875 77.710 C 196.875 78.407,196.417 78.681,195.708 78.409 C 195.066 78.163,194.735 77.647,194.972 77.262 C 195.654 76.159,196.875 76.446,196.875 77.710 M169.303 84.561 C 169.116 85.533,168.956 84.922,168.947 83.203 C 168.938 81.484,169.091 80.689,169.287 81.436 C 169.482 82.183,169.489 83.589,169.303 84.561 M197.656 84.766 C 199.627 86.863,198.587 87.538,196.540 85.491 C 195.453 84.404,194.875 82.813,195.567 82.813 C 195.707 82.813,196.647 83.691,197.656 84.766 M258.650 91.016 C 261.811 93.594,265.288 96.582,266.378 97.656 C 267.468 98.731,269.315 100.102,270.483 100.705 C 273.528 102.275,276.795 105.843,274.609 105.210 C 273.750 104.962,271.403 104.356,269.394 103.864 C 266.880 103.248,264.624 101.898,262.154 99.531 C 260.181 97.641,258.401 96.094,258.198 96.094 C 257.675 96.094,254.693 93.616,253.209 91.949 C 252.518 91.173,250.107 89.109,247.852 87.362 C 245.596 85.614,243.750 83.920,243.750 83.597 C 243.750 81.952,253.474 86.793,258.650 91.016 M309.363 138.477 C 309.356 143.757,309.064 147.594,308.711 147.038 C 308.126 146.117,308.073 143.098,308.458 132.617 C 308.734 125.073,309.375 129.217,309.363 138.477 M257.713 136.779 C 260.595 137.435,262.317 138.725,261.458 139.583 C 261.158 139.884,260.495 139.714,259.987 139.206 C 259.479 138.697,258.342 138.279,257.461 138.276 C 256.580 138.273,254.805 137.543,253.516 136.654 C 251.354 135.163,251.324 135.082,253.125 135.608 C 254.199 135.922,256.264 136.449,257.713 136.779 M268.020 143.512 C 269.067 144.862,269.045 144.864,267.503 143.555 C 266.617 142.803,265.481 142.188,264.978 142.188 C 264.474 142.188,264.063 141.824,264.063 141.379 C 264.063 140.297,266.576 141.652,268.020 143.512 M318.035 149.465 C 317.426 150.074,317.188 149.756,317.188 148.333 C 317.188 145.757,318.282 144.656,318.621 146.891 C 318.765 147.841,318.501 148.999,318.035 149.465 M302.344 155.385 C 302.344 155.769,301.816 156.285,301.172 156.533 C 300.458 156.806,300.000 156.534,300.000 155.835 C 300.000 155.204,300.527 154.688,301.172 154.688 C 301.816 154.688,302.344 155.001,302.344 155.385 M314.844 159.094 C 314.844 159.874,312.227 161.666,311.046 161.694 C 310.428 161.708,310.756 161.075,311.828 160.182 C 313.713 158.611,314.844 158.203,314.844 159.094 M113.053 165.811 C 112.866 166.783,112.706 166.172,112.697 164.453 C 112.688 162.734,112.841 161.939,113.037 162.686 C 113.232 163.433,113.239 164.839,113.053 165.811 M52.687 173.807 C 52.321 175.758,51.893 176.424,51.352 175.883 C 50.811 175.342,50.876 174.313,51.555 172.675 C 52.836 169.582,53.378 170.124,52.687 173.807 M76.314 175.569 C 76.867 175.753,77.358 174.837,77.536 173.290 C 77.700 171.867,77.726 178.613,77.592 188.281 C 77.373 204.215,76.758 210.361,76.039 203.796 C 75.890 202.432,75.467 200.931,75.101 200.462 C 74.734 199.993,74.187 198.576,73.884 197.313 C 73.581 196.050,72.654 194.063,71.823 192.896 C 70.992 191.729,70.313 190.371,70.313 189.877 C 70.313 189.383,69.461 187.726,68.420 186.194 C 66.464 183.316,66.543 181.568,68.702 179.938 C 69.704 179.181,70.002 179.320,70.371 180.719 C 71.060 183.334,74.185 177.865,74.308 173.828 C 74.395 170.988,74.449 170.911,74.897 172.982 C 75.169 174.236,75.806 175.400,76.314 175.569 M226.221 175.264 C 227.610 174.731,227.629 175.731,226.265 177.527 C 224.938 179.275,224.195 178.489,224.309 175.456 C 224.359 174.131,224.557 173.643,224.749 174.371 C 224.952 175.140,225.568 175.514,226.221 175.264 M270.664 176.430 C 269.823 177.166,257.183 180.905,253.320 181.561 C 249.258 182.251,250.381 181.443,255.469 180.016 C 258.047 179.292,260.156 178.395,260.156 178.022 C 260.156 177.649,261.475 177.319,263.086 177.289 C 264.697 177.259,266.719 176.932,267.578 176.563 C 269.641 175.676,271.624 175.591,270.664 176.430 M246.094 179.380 C 246.094 180.150,246.527 180.469,247.215 180.206 C 248.494 179.715,249.132 180.996,248.610 183.008 C 248.363 183.958,247.478 184.375,245.708 184.375 C 244.306 184.375,242.722 184.902,242.188 185.547 C 241.653 186.191,240.467 186.678,239.553 186.628 C 238.233 186.556,238.172 186.464,239.258 186.180 C 241.921 185.484,240.623 183.936,237.695 184.317 C 237.158 184.386,236.719 183.926,236.719 183.293 C 236.719 181.552,238.946 179.688,241.025 179.688 C 242.043 179.688,243.094 179.336,243.359 178.906 C 244.129 177.661,246.094 178.002,246.094 179.380 M109.375 181.380 C 109.375 182.311,109.276 182.926,109.154 182.747 C 109.032 182.568,108.462 181.807,107.886 181.055 C 106.991 179.884,107.022 179.688,108.107 179.688 C 108.887 179.688,109.375 180.340,109.375 181.380 M54.688 207.031 C 54.688 207.891,54.411 208.594,54.074 208.594 C 53.736 208.594,53.460 207.891,53.460 207.031 C 53.460 206.172,53.736 205.469,54.074 205.469 C 54.411 205.469,54.688 206.172,54.688 207.031 M333.328 217.773 C 333.125 218.525,332.730 220.158,332.451 221.402 C 332.157 222.718,331.657 223.371,331.256 222.965 C 330.473 222.169,332.055 216.406,333.056 216.406 C 333.410 216.406,333.532 217.021,333.328 217.773 M266.211 242.726 C 265.459 242.923,264.229 242.923,263.477 242.726 C 262.725 242.530,263.340 242.369,264.844 242.369 C 266.348 242.369,266.963 242.530,266.211 242.726 M262.695 261.508 C 264.106 261.914,264.636 264.063,263.325 264.063 C 262.919 264.063,261.601 263.153,260.395 262.041 C 258.699 260.476,258.557 260.143,259.766 260.567 C 260.625 260.868,261.943 261.292,262.695 261.508 M262.500 272.760 C 262.500 273.742,265.487 276.563,266.526 276.563 C 266.890 276.563,267.188 276.881,267.188 277.271 C 267.188 277.660,266.484 277.795,265.625 277.570 C 264.766 277.345,264.063 276.851,264.063 276.471 C 264.063 276.092,263.576 275.781,262.982 275.781 C 262.387 275.781,261.733 274.902,261.528 273.828 C 261.322 272.754,261.457 271.875,261.827 271.875 C 262.197 271.875,262.500 272.273,262.500 272.760 M347.014 293.996 C 345.895 296.671,345.819 299.219,346.860 299.219 C 347.852 299.219,348.656 295.990,348.251 293.634 C 347.940 291.825,347.921 291.831,347.014 293.996 M348.997 338.086 C 348.818 339.268,348.672 338.301,348.672 335.938 C 348.672 333.574,348.818 332.607,348.997 333.789 C 349.176 334.971,349.176 336.904,348.997 338.086 M214.844 338.456 C 214.844 339.310,208.628 334.231,208.608 333.362 C 208.600 333.019,210.000 333.869,211.719 335.250 C 213.438 336.631,214.844 338.074,214.844 338.456 M83.594 336.719 C 83.594 337.148,84.648 337.500,85.938 337.500 C 87.227 337.500,88.281 337.852,88.281 338.281 C 88.281 338.711,87.955 339.063,87.557 339.063 C 87.159 339.063,86.717 339.666,86.575 340.405 C 86.361 341.516,85.948 341.349,84.174 339.436 C 81.925 337.010,81.507 335.938,82.813 335.938 C 83.242 335.938,83.594 336.289,83.594 336.719 M145.313 361.719 C 143.769 362.716,141.180 362.716,141.797 361.719 C 142.062 361.289,143.226 360.943,144.382 360.949 C 146.026 360.959,146.229 361.126,145.313 361.719 " stroke="none" fill="#000000" fill-rule="evenodd"></path></g></svg>